<?xml version="1.0" encoding="utf-8"?>
<!-- Generator: Adobe Illustrator 19.2.1, SVG Export Plug-In . SVG Version: 6.00 Build 0)  -->
<svg version="1.1" id="Слой_1_xA0_Изображение_1_"
	 xmlns="http://www.w3.org/2000/svg" xmlns:xlink="http://www.w3.org/1999/xlink" x="0px" y="0px" viewBox="0 0 198.8 42.8"
	 style="enable-background:new 0 0 198.8 42.8;" xml:space="preserve">
<style type="text/css">
	.st0{fill:#FB1818;}
	.st1{opacity:0.6;}
	.st2{fill:#FFFFFF;}
</style>
<g>
	<g>
		<path class="st0" d="M196,42.8H2.8C1.3,42.8,0,41.6,0,40V2.8C0,1.3,1.3,0,2.8,0H196c1.6,0,2.8,1.3,2.8,2.8V40
			C198.9,41.6,197.6,42.8,196,42.8z"/>
	</g>
</g>
<g>
	<g class="st1">
		<path d="M71.5,11.2h8.6c1.7,0,3,0.1,3.8,0.2s1.6,0.4,2.2,0.9s1.2,1,1.6,1.8s0.7,1.6,0.7,2.5c0,1-0.3,1.9-0.8,2.8s-1.3,1.5-2.2,1.9
			c1.3,0.4,2.3,1,3,1.9s1.1,2,1.1,3.2c0,1-0.2,1.9-0.7,2.8s-1.1,1.7-1.9,2.2s-1.8,0.9-2.9,1c-0.7,0.1-2.5,0.1-5.2,0.1h-7.3
			C71.5,32.5,71.5,11.2,71.5,11.2z M75.8,14.8v5h2.8c1.7,0,2.7,0,3.1-0.1c0.7-0.1,1.3-0.3,1.8-0.8s0.6-1,0.6-1.7s-0.2-1.2-0.5-1.6
			c-0.4-0.4-0.9-0.7-1.6-0.8c-0.4,0-1.7-0.1-3.7-0.1h-2.5V14.8z M75.8,23.3V29h4c1.6,0,2.6,0,3-0.1c0.6-0.1,1.2-0.4,1.6-0.9
			s0.6-1.1,0.6-1.8c0-0.6-0.2-1.2-0.5-1.6s-0.8-0.8-1.4-1s-1.9-0.3-3.8-0.3C79.3,23.3,75.8,23.3,75.8,23.3z"/>
		<path d="M93.1,11.2h4.3v11.6c0,1.8,0.1,3,0.2,3.6c0.2,0.9,0.6,1.6,1.3,2.1c0.7,0.5,1.7,0.8,2.9,0.8c1.2,0,2.2-0.3,2.8-0.8
			c0.6-0.5,1-1.1,1.1-1.9s0.2-1.9,0.2-3.6V11.2h4.3v11.3c0,2.6-0.1,4.4-0.4,5.5c-0.2,1.1-0.7,2-1.3,2.7c-0.6,0.7-1.5,1.3-2.5,1.8
			c-1.1,0.4-2.4,0.7-4.1,0.7c-2.1,0-3.6-0.2-4.7-0.7s-1.9-1.1-2.5-1.8s-1-1.6-1.2-2.4c-0.3-1.2-0.4-3-0.4-5.4
			C93.1,22.9,93.1,11.2,93.1,11.2z"/>
		<path d="M120.4,32.7v-9l-7.9-12.4h5.1l5.1,8.5l5-8.5h5l-7.9,12.5v9h-4.4V32.7z"/>
	</g>
	<g>
		<g>
			<path class="st2" d="M70.3,10.1h8.6c1.7,0,3,0.1,3.8,0.2s1.6,0.4,2.2,0.9s1.2,1,1.6,1.8s0.7,1.6,0.7,2.5c0,1-0.3,1.9-0.8,2.8
				s-1.3,1.5-2.2,1.9c1.3,0.4,2.3,1,3,1.9s1.1,2,1.1,3.2c0,1-0.2,1.9-0.7,2.8s-1.1,1.7-1.9,2.2s-1.8,0.9-2.9,1
				c-0.7,0.1-2.5,0.1-5.2,0.1h-7.3C70.3,31.4,70.3,10.1,70.3,10.1z M74.7,13.7v5h2.8c1.7,0,2.7,0,3.1-0.1c0.7-0.1,1.3-0.3,1.8-0.8
				s0.6-1,0.6-1.7c0-0.7-0.2-1.2-0.5-1.6s-0.9-0.7-1.6-0.8c-0.4,0-1.7-0.1-3.7-0.1h-2.5V13.7z M74.7,22.2v5.7h4c1.6,0,2.6,0,3-0.1
				c0.6-0.1,1.2-0.4,1.6-0.9s0.6-1.1,0.6-1.8c0-0.6-0.2-1.2-0.5-1.6s-0.8-0.8-1.4-1s-1.9-0.3-3.8-0.3C78.2,22.2,74.7,22.2,74.7,22.2
				z"/>
			<path class="st2" d="M92,10.1h4.3v11.6c0,1.8,0.1,3,0.2,3.6c0.2,0.9,0.6,1.6,1.3,2.1c0.7,0.5,1.7,0.8,2.9,0.8
				c1.2,0,2.2-0.3,2.8-0.8c0.6-0.5,1-1.1,1.1-1.9s0.2-1.9,0.2-3.6V10.1h4.3v11.3c0,2.6-0.1,4.4-0.4,5.5c-0.2,1.1-0.7,2-1.3,2.7
				c-0.6,0.7-1.5,1.3-2.5,1.8c-1.1,0.4-2.4,0.7-4.1,0.7c-2.1,0-3.6-0.2-4.7-0.7s-1.9-1.1-2.5-1.8s-1-1.6-1.2-2.4
				c-0.3-1.2-0.4-3-0.4-5.4C92,21.8,92,10.1,92,10.1z"/>
			<path class="st2" d="M119.3,31.6v-9l-7.9-12.4h5.1l5.1,8.5l5-8.5h5l-7.9,12.5v9h-4.4V31.6z"/>
		</g>
	</g>
</g>
</svg>
