<?xml version="1.0" encoding="utf-8"?>
<!-- Generator: Adobe Illustrator 19.2.1, SVG Export Plug-In . SVG Version: 6.00 Build 0)  -->
<svg version="1.1" id="Слой_1_xA0_Изображение_1_"
	 xmlns="http://www.w3.org/2000/svg" xmlns:xlink="http://www.w3.org/1999/xlink" x="0px" y="0px" viewBox="0 0 198.8 42.8"
	 style="enable-background:new 0 0 198.8 42.8;" xml:space="preserve">
<style type="text/css">
	.st0{fill:#00A8E6;}
	.st1{opacity:0.6;}
	.st2{fill:#FFFFFF;}
</style>
<g>
	<g>
		<path class="st0" d="M196,42.8H2.8C1.3,42.8,0,41.6,0,40V2.8C0,1.3,1.3,0,2.8,0H196c1.6,0,2.8,1.3,2.8,2.8V40
			C198.9,41.6,197.6,42.8,196,42.8z"/>
	</g>
</g>
<g>
	<g class="st1">
		<path d="M43.4,32.7V11.2h7c2.6,0,4.4,0.1,5.2,0.3c1.2,0.3,2.3,1,3.1,2.1s1.2,2.5,1.2,4.2c0,1.3-0.2,2.4-0.7,3.3s-1.1,1.6-1.8,2.1
			s-1.5,0.9-2.2,1c-1,0.2-2.5,0.3-4.5,0.3h-2.8v8.1h-4.5V32.7z M47.7,14.9V21h2.4c1.7,0,2.9-0.1,3.4-0.3s1-0.6,1.4-1.1
			s0.5-1,0.5-1.7c0-0.8-0.2-1.4-0.7-1.9c-0.5-0.5-1-0.8-1.7-1c-0.5-0.1-1.6-0.1-3.1-0.1H47.7z"/>
		<path d="M63.5,32.7V11.4h4.3v17.7h10.8v3.6H63.5z"/>
		<path d="M101.1,32.7h-4.7l-1.9-4.9h-8.6l-1.8,4.9h-4.6l8.4-21.5h4.6L101.1,32.7z M93.1,24.2l-3-8l-2.9,8H93.1z"/>
		<path d="M106.3,32.7v-9l-7.9-12.4h5.1l5.1,8.5l5-8.5h5l-7.9,12.5v9h-4.4V32.7z"/>
		<path d="M120.6,32.7V11.2h15.9v3.6H125v4.8h10.8v3.6H125V29h12v3.6h-16.4V32.7z"/>
		<path d="M140.6,11.2h7.9c1.8,0,3.1,0.1,4.1,0.4c1.3,0.4,2.3,1,3.2,2s1.6,2.1,2.1,3.5s0.7,3.1,0.7,5.1c0,1.8-0.2,3.3-0.7,4.6
			c-0.5,1.6-1.3,2.8-2.3,3.8c-0.8,0.7-1.8,1.3-3,1.7c-1,0.3-2.2,0.5-3.8,0.5h-8.2V11.2z M145,14.9v14.2h3.2c1.2,0,2.1-0.1,2.6-0.2
			c0.7-0.2,1.3-0.5,1.8-0.9s0.8-1.1,1.1-2.1s0.4-2.3,0.4-3.9s-0.1-2.9-0.4-3.8s-0.7-1.6-1.2-2.1c-0.5-0.5-1.2-0.8-2-1
			c-0.6-0.1-1.8-0.2-3.6-0.2C146.9,14.9,145,14.9,145,14.9z"/>
	</g>
	<g>
		<g>
			<path class="st2" d="M42.3,31.6V10.1h7c2.6,0,4.4,0.1,5.2,0.3c1.2,0.3,2.3,1,3.1,2.1s1.2,2.5,1.2,4.2c0,1.3-0.2,2.4-0.7,3.3
				s-1.1,1.6-1.8,2.1s-1.5,0.9-2.2,1c-1,0.2-2.5,0.3-4.5,0.3h-2.8v8.1h-4.5V31.6z M46.6,13.7v6.1H49c1.7,0,2.9-0.1,3.4-0.3
				s1-0.6,1.4-1.1s0.5-1,0.5-1.7c0-0.8-0.2-1.4-0.7-1.9s-1-0.8-1.7-1c-0.5-0.1-1.6-0.1-3.1-0.1C48.8,13.7,46.6,13.7,46.6,13.7z"/>
			<path class="st2" d="M62.4,31.6V10.3h4.3V28h10.8v3.6H62.4z"/>
			<path class="st2" d="M100,31.6h-4.7l-1.9-4.9h-8.6L83,31.6h-4.6l8.4-21.5h4.6L100,31.6z M92,23.1l-3-8l-2.9,8H92z"/>
			<path class="st2" d="M105.1,31.6v-9l-7.9-12.4h5.1l5.1,8.5l5-8.5h5l-7.9,12.5v9h-4.4V31.6z"/>
			<path class="st2" d="M119.5,31.6V10.1h15.9v3.6h-11.6v4.8h10.8v3.6h-10.8v5.8h12v3.6L119.5,31.6L119.5,31.6z"/>
			<path class="st2" d="M139.5,10.1h7.9c1.8,0,3.1,0.1,4.1,0.4c1.3,0.4,2.3,1,3.2,2s1.6,2.1,2.1,3.5s0.7,3.1,0.7,5.1
				c0,1.8-0.2,3.3-0.7,4.6c-0.5,1.6-1.3,2.8-2.3,3.8c-0.8,0.7-1.8,1.3-3,1.7c-1,0.3-2.2,0.5-3.8,0.5h-8.2V10.1z M143.8,13.7v14.2
				h3.2c1.2,0,2.1-0.1,2.6-0.2c0.7-0.2,1.3-0.5,1.8-0.9s0.8-1.1,1.1-2.1s0.4-2.3,0.4-3.9s-0.1-2.9-0.4-3.8s-0.7-1.6-1.2-2.1
				s-1.2-0.8-2-1c-0.6-0.1-1.8-0.2-3.6-0.2H143.8z"/>
		</g>
	</g>
</g>
</svg>
