<?xml version="1.0" encoding="utf-8"?>
<!-- Generator: Adobe Illustrator 19.2.1, SVG Export Plug-In . SVG Version: 6.00 Build 0)  -->
<svg version="1.1" id="Слой_1" xmlns="http://www.w3.org/2000/svg" xmlns:xlink="http://www.w3.org/1999/xlink" x="0px" y="0px"
	 viewBox="0 0 232 110.9" style="enable-background:new 0 0 232 110.9;" xml:space="preserve">
<style type="text/css">
	.st0{fill:#2B7834;}
	.st1{fill:#F9CA33;}
</style>
<g>
	<path class="st0" d="M13.4,41.4v24.7c0.3,0,1.3,0,3.2-0.1c1.8-0.1,3.2-0.1,3.9-0.1c0.5,0,1,0,1.7-0.1l2-0.2l-0.1,0.7l0,0.5l0,0.5
		l0.1,0.7H10V41.4l1,0.1l0.7,0l0.7,0L13.4,41.4z"/>
	<path class="st0" d="M44.5,49.4v18.6L43.8,68c-0.2,0-0.3,0-0.4,0l-0.5,0h-0.5L42,68l-0.7,0.1v-3.4c-0.4,0.8-0.9,1.5-1.5,2
		c-0.6,0.5-1.3,0.9-2.1,1.2s-1.7,0.4-2.6,0.4c-2.2,0-3.8-0.6-4.8-1.8c-1.1-1.2-1.6-3.1-1.6-5.7V49.4l0.9,0.1l0.7,0l0.6,0l0.9-0.1
		v10.5c0,1.4,0.2,2.6,0.5,3.5s0.8,1.7,1.5,2.2s1.6,0.8,2.8,0.8c1.2,0,2.2-0.3,2.9-0.9s1.2-1.4,1.5-2.4c0.3-1,0.4-2,0.4-3V49.4
		l0.9,0.1l0.7,0l0.6,0L44.5,49.4z"/>
	<path class="st0" d="M65.6,50.8l-0.9,2.6h-0.3c-0.5-0.7-0.9-1.1-1-1.3c-0.4-0.5-1-0.8-1.7-1.1c-0.8-0.3-1.5-0.4-2.2-0.4
		c-2.1,0-3.7,0.8-5,2.3c-0.6,0.8-1,1.6-1.3,2.6c-0.3,0.9-0.4,1.9-0.4,3.1c0,0.8,0.1,1.6,0.2,2.3s0.4,1.4,0.7,2.1
		c0.6,1.3,1.4,2.3,2.5,3c1.1,0.7,2.3,1.1,3.7,1.1c1,0,1.9-0.2,2.7-0.6c0.8-0.4,1.7-1.1,2.6-1.9l0.2,0.1l-0.2,1.8c-1.8,1.3-3.8,2-6,2
		c-2.1,0-3.9-0.4-5.4-1.2c-1.5-0.8-2.6-2-3.4-3.5c-0.8-1.5-1.2-3.1-1.2-5c0-2,0.4-3.6,1.3-5.1s2-2.5,3.6-3.3
		c1.5-0.8,3.3-1.1,5.2-1.1C61.8,49.2,63.9,49.7,65.6,50.8z"/>
	<path class="st0" d="M73.4,38.8v17.5c0,0.6,0,0.9,0,1c0,0.1,0.1,0.2,0.2,0.3c0.7,0,1.9-0.8,3.4-2.3l2.4-2.5l3-3.4l0.9,0.1l0.7,0
		l0.6,0l0.9-0.1v0.3l-1.1,0.9l-2.1,1.8c-1.1,0.9-2.2,1.9-3.2,2.8l-2.2,2l1.7,2l2.5,2.9l2.6,3.1l2.3,2.7v0.2L85.3,68
		c-0.2,0-0.4,0-0.5,0l-0.6,0h-0.6l-0.5,0l-0.8,0.1c-0.6-0.8-1.6-2-2.9-3.5l-4.6-5.3c-0.4-0.4-0.7-0.6-0.9-0.6
		c-0.3,0-0.5,0.5-0.5,1.4v8L72.8,68c-0.2,0-0.3,0-0.4,0l-0.5,0h-0.5L71,68l-0.7,0.1V38.8l0.9,0.1l0.7,0l0.6,0L73.4,38.8z"/>
	<path class="st0" d="M95.6,67.9l-7.9-18.5l1.1,0.1l0.8,0l0.7,0l1.1-0.1c0.6,2,1.4,4.2,2.5,6.8c1,2.6,2.1,5.1,3.3,7.7
		c0.9-1.7,1.8-3.9,2.9-6.6c0.5-1.2,1-2.6,1.5-4c0.5-1.2,1-2.5,1.4-3.9l0.7,0.1l0.6,0l0.5,0l0.7-0.1l-3.3,7.4l-3.5,7.7
		c-0.6,1.4-1.2,2.6-1.6,3.6c-0.6,1.3-1.1,2.4-1.5,3.4c-0.4,0.9-0.8,1.9-1.4,3.3C94,75.7,93.6,76.7,93,78L92.5,78c-0.2,0-0.3,0-0.4,0
		l-0.4,0l-0.5,0l-0.4,0L90.4,78L95.6,67.9z"/>
	<path class="st0" d="M144,41.4h0.8l0.8,6.9l0.8,7.2c0.3,2.2,0.4,3.6,0.5,4.1c0.1,0.5,0.1,1.1,0.3,2l0.9,6.6l-0.8-0.1
		c-0.2,0-0.4,0-0.5,0l-0.6,0l-0.6,0l-0.5,0l-0.7,0.1c0-1-0.1-2.4-0.3-3.9c-0.1-0.8-0.2-1.6-0.3-2.5l-0.5-5.3l-0.5-4.6
		c-0.2-1.8-0.3-3.1-0.5-3.9c-0.9,1.7-1.7,3.1-2.3,4.2c-0.8,1.4-1.4,2.6-2,3.6c-0.5,0.9-0.9,1.6-1.1,2.2c-0.1,0.2-0.5,0.9-1.1,2.2
		c-0.3,0.5-0.6,1.3-1.1,2.2c-1,2-1.9,3.9-2.6,5.5h-0.4l-2.1-4.4c-0.8-1.7-1.7-3.4-2.6-5.1l-2.7-5.2l-2.6-5c-0.1,1-0.2,2-0.3,2.9
		c-0.1,0.9-0.2,1.9-0.3,2.9l-0.7,5.8l-0.5,5.2c0,0.4,0,1-0.1,1.7c0,0.7-0.1,1.3-0.1,1.6l-0.6-0.1c-0.2,0-0.3,0-0.4,0l-0.4,0l-0.5,0
		l-0.4,0l-0.5,0.1l1.4-9L120,48c0.4-2.9,0.7-5.1,0.8-6.6l1,0l2.8,5.6c0.6,1.2,1.4,2.7,2.4,4.5c1.1,2.1,2.2,4,3.1,5.6
		c0.9,1.6,1.5,2.6,1.7,3c0.1,0.2,0.5,0.8,1,1.7l3.1-5.7l3-5.5l1.9-3.6L144,41.4z"/>
	<path class="st0" d="M166.1,55.7v9c0,0.2,0,0.4,0,0.6c0,0.2,0,0.4,0,0.6c0,0.2,0.1,0.4,0.3,0.5s0.4,0.2,0.7,0.2
		c0.3,0,0.6-0.1,1.1-0.2v0.9c-0.4,0.2-0.9,0.3-1.2,0.4s-0.8,0.1-1.2,0.1c-0.4,0-0.7-0.1-1-0.2s-0.6-0.2-0.9-0.4
		c-0.5-0.4-0.8-1-0.9-1.8l-0.3,0.4c-1.6,1.6-3.6,2.5-5.8,2.5c-1.4,0-2.6-0.4-3.7-1.3c-1-0.9-1.5-2-1.5-3.4c0-1.4,0.3-2.4,1-3.2
		c0.6-0.8,1.4-1.3,2.3-1.6c0.9-0.3,2.2-0.6,3.9-0.9c1.2-0.2,2.1-0.4,2.6-0.5c0.5-0.2,0.9-0.4,1.1-0.7c0.2-0.3,0.4-0.8,0.4-1.4
		c0-1.4-0.4-2.6-1.2-3.4c-0.8-0.8-1.9-1.2-3.4-1.2c-0.8,0-1.6,0.2-2.3,0.5s-1.2,0.7-1.6,1.1c-0.4,0.4-0.7,0.8-0.8,1.2h-0.4v-2.2
		c2.1-1.4,4.2-2.2,6.3-2.2c2.1,0,3.6,0.5,4.7,1.6C165.6,51.9,166.1,53.6,166.1,55.7z M163,64v-5.7l-1.4,0.3l-2.4,0.5
		c-0.7,0.2-1.4,0.4-2,0.6c-0.6,0.3-1.2,0.7-1.6,1.2c-0.4,0.5-0.6,1.2-0.6,2.1c0,1.2,0.3,2.1,1,2.8c0.7,0.6,1.6,0.9,2.8,0.9
		c0.5,0,1-0.2,1.6-0.5s1.1-0.6,1.5-1l0.4-0.4l0.4-0.5C162.9,64.2,162.9,64.1,163,64z"/>
	<path class="st0" d="M172.6,68.1V49.4l0.9,0.1l0.7,0l0.6-0.1l0.9-0.1v3.9l0.2-0.5c1.5-2.4,3.2-3.7,4.9-3.7c0.5,0,0.9,0.1,1.2,0.2
		l-0.5,3.3c-0.2,0-0.4-0.1-0.8-0.3c-0.4-0.2-0.7-0.3-1-0.3c-0.5,0-0.9,0.1-1.4,0.2c-0.4,0.2-0.8,0.4-1.1,0.8c-0.6,0.7-1,1.4-1.2,2.1
		c-0.2,0.7-0.3,1.7-0.3,2.8v10.1L175,68c-0.2,0-0.3,0-0.4,0l-0.5,0h-0.5l-0.4,0L172.6,68.1z"/>
	<path class="st0" d="M188.7,38.8v17.5c0,0.6,0,0.9,0,1c0,0.1,0.1,0.2,0.2,0.3c0.7,0,1.9-0.8,3.4-2.3l2.4-2.5l3-3.4l0.9,0.1l0.7,0
		l0.6,0l0.9-0.1v0.3l-1.1,0.9l-2.1,1.8c-1.1,0.9-2.2,1.9-3.2,2.8l-2.2,2l1.7,2l2.5,2.9l2.6,3.1l2.3,2.7v0.2l-0.8-0.1
		c-0.2,0-0.4,0-0.5,0l-0.6,0h-0.6l-0.5,0l-0.8,0.1c-0.6-0.8-1.6-2-2.9-3.5l-4.6-5.3c-0.4-0.4-0.7-0.6-0.9-0.6
		c-0.3,0-0.5,0.5-0.5,1.4v8L188,68c-0.2,0-0.3,0-0.4,0l-0.5,0h-0.5l-0.4,0l-0.7,0.1V38.8l0.9,0.1l0.7,0l0.6,0L188.7,38.8z"/>
	<path class="st0" d="M219.2,64l0,2c-1,0.7-2.1,1.3-3.3,1.7c-0.6,0.2-1.1,0.4-1.7,0.5s-1.1,0.2-1.7,0.2c-1.8,0-3.4-0.4-4.8-1.1
		c-1.4-0.8-2.5-1.9-3.3-3.3c-0.8-1.5-1.2-3.2-1.2-5.1c0-1.8,0.3-3.5,1-4.9s1.7-2.6,3.1-3.4c1.4-0.8,3-1.3,4.8-1.3
		c1.1,0,2.1,0.2,3,0.5c0.9,0.4,1.8,0.9,2.5,1.6c0.7,0.7,1.3,1.6,1.8,2.7s0.6,2.4,0.6,3.8l0,0.5l0,0.4c-0.9,0-2.2,0-3.9-0.1
		s-3.1-0.1-4-0.1h-5.5l0,0.8c0,1,0.1,2,0.4,2.8c0.3,0.9,0.7,1.6,1.3,2.3c0.6,0.7,1.3,1.2,2.2,1.6c0.9,0.4,1.8,0.6,2.9,0.6
		C215.5,66.7,217.4,65.8,219.2,64z M206.7,57.2h10.4c0-1-0.1-1.9-0.3-2.7c-0.2-0.8-0.5-1.6-0.9-2.2c-0.7-1.3-2-1.9-3.7-1.9
		c-1.1,0-2.1,0.3-2.9,1s-1.4,1.5-1.9,2.5c-0.2,0.6-0.4,1.2-0.6,1.7C206.8,56.1,206.7,56.6,206.7,57.2z"/>
	<path class="st0" d="M224.3,45.5l3.1-1.2v5.1h4.1l-0.1,0.8c0,0.2,0,0.5,0.1,0.7h-4.1v9.8v1.4c0,1.5,0.2,2.7,0.6,3.6
		s1.2,1.4,2.3,1.4c0.1,0,0.3,0,0.6-0.1c0.3,0,0.6-0.1,1.2-0.2v0.9c-1.3,0.5-2.4,0.7-3.3,0.7c-0.7,0-1.3-0.1-1.9-0.3
		c-0.5-0.2-1-0.5-1.4-1c-0.4-0.5-0.7-1.1-0.9-2c-0.2-0.8-0.3-1.8-0.3-3V50.9h-2.4c0.1-0.2,0.1-0.4,0.1-0.7c0-0.4,0-0.6-0.1-0.7h2.4
		V45.5z"/>
</g>
<path class="st1" d="M18.1,15.5C-4.5,36.7-6.2,71.8,14.5,93.9C35.2,116,70.3,116.7,93,95.4s24.3-56.3,3.6-78.4
	C75.9-5.1,40.8-5.8,18.1,15.5z M92.3,94.8c-20.4,19.1-53.4,17-73.7-4.7s-20.3-54.8,0.2-73.9s53.4-17,73.7,4.7S112.8,75.7,92.3,94.8z
	"/>
</svg>
