<?xml version="1.0" encoding="utf-8"?>
<!-- Generator: Adobe Illustrator 19.2.1, SVG Export Plug-In . SVG Version: 6.00 Build 0)  -->
<svg version="1.1" id="Слой_1_xA0_Изображение_1_"
	 xmlns="http://www.w3.org/2000/svg" xmlns:xlink="http://www.w3.org/1999/xlink" x="0px" y="0px" viewBox="0 0 198.8 42.8"
	 style="enable-background:new 0 0 198.8 42.8;" xml:space="preserve">
<style type="text/css">
	.st0{fill:#31A048;}
	.st1{opacity:0.6;}
	.st2{fill:#FFFFFF;}
</style>
<g>
	<g>
		<path class="st0" d="M196,42.8H2.8C1.3,42.8,0,41.6,0,40V2.8C0,1.3,1.3,0,2.8,0H196c1.6,0,2.8,1.3,2.8,2.8V40
			C198.9,41.6,197.6,42.8,196,42.8z"/>
	</g>
</g>
<g>
	<g class="st1">
		<path d="M14.3,32.7V11.2h6.5c2.5,0,4.1,0.1,4.8,0.3c1.1,0.3,2.1,1,2.9,2.1s1.2,2.5,1.2,4.2c0,1.3-0.2,2.4-0.7,3.3
			c-0.4,0.9-1,1.6-1.7,2.1s-1.4,0.9-2.1,1c-1,0.2-2.4,0.3-4.2,0.3h-2.6v8.1h-4.1V32.7z M18.4,14.9V21h2.2c1.6,0,2.7-0.1,3.2-0.3
			c0.5-0.2,1-0.6,1.3-1.1s0.5-1,0.5-1.7c0-0.8-0.2-1.4-0.6-1.9c-0.4-0.5-1-0.8-1.6-1c-0.5-0.1-1.4-0.1-2.9-0.1H18.4z"/>
		<path d="M32.9,11.2h4v11.6c0,1.8,0,3,0.1,3.6c0.2,0.9,0.6,1.6,1.2,2.1c0.6,0.5,1.5,0.8,2.7,0.8c1.1,0,2-0.3,2.6-0.8s0.9-1.1,1-1.9
			s0.2-1.9,0.2-3.6V11.2h4v11.3c0,2.6-0.1,4.4-0.3,5.5s-0.6,2-1.2,2.7C46.7,31.4,46,32,45,32.4s-2.3,0.7-3.8,0.7
			c-1.9,0-3.4-0.2-4.3-0.7c-1-0.5-1.8-1.1-2.3-1.8s-0.9-1.6-1.1-2.4c-0.3-1.2-0.4-3-0.4-5.4V11.2H32.9z"/>
		<path d="M53.1,32.7V11.2h8.5c2.1,0,3.7,0.2,4.7,0.6c1,0.4,1.7,1.1,2.3,2.1c0.6,1,0.9,2.1,0.9,3.4c0,1.6-0.4,2.9-1.3,4
			c-0.9,1-2.2,1.7-4,2c0.9,0.5,1.6,1.1,2.2,1.8c0.6,0.7,1.3,1.8,2.3,3.5l2.4,4.2h-4.8l-3-4.8c-1-1.7-1.7-2.7-2.1-3.2
			c-0.4-0.4-0.8-0.7-1.2-0.9c-0.4-0.2-1.1-0.2-2-0.2h-0.8v9C57.2,32.7,53.1,32.7,53.1,32.7z M57.1,20.3h3c1.9,0,3.1-0.1,3.6-0.3
			s0.9-0.5,1.1-0.9s0.4-1,0.4-1.6c0-0.7-0.2-1.3-0.5-1.8c-0.4-0.4-0.9-0.7-1.5-0.8c-0.3,0-1.3-0.1-2.9-0.1h-3.1L57.1,20.3L57.1,20.3
			z"/>
		<path d="M86,24.8l3.9,1.3c-0.6,2.3-1.6,4.1-3,5.2c-1.4,1.1-3.2,1.7-5.3,1.7c-2.7,0-4.8-1-6.5-2.9s-2.6-4.6-2.6-8
			c0-3.6,0.9-6.4,2.6-8.3c1.7-2,4-3,6.8-3c2.4,0,4.4,0.8,6,2.3c0.9,0.9,1.6,2.2,2,4l-4,1c-0.2-1.1-0.7-2-1.5-2.6
			c-0.7-0.6-1.7-1-2.7-1c-1.5,0-2.7,0.6-3.6,1.7s-1.4,3-1.4,5.6c0,2.7,0.5,4.6,1.4,5.8s2.1,1.7,3.5,1.7c1.1,0,2-0.4,2.8-1.1
			C85.1,27.5,85.7,26.4,86,24.8z"/>
		<path d="M93.4,32.7V11.2h4v8.5h7.9v-8.5h4v21.5h-4v-9.4h-7.9v9.4H93.4z"/>
		<path d="M131.6,32.7h-4.4l-1.7-4.9h-8l-1.6,4.9h-4.3l7.8-21.5h4.3L131.6,32.7z M124.1,24.2l-2.8-8l-2.7,8H124.1z"/>
		<path d="M132.7,25.7l3.9-0.4c0.2,1.4,0.7,2.5,1.4,3.1c0.7,0.7,1.7,1,2.9,1c1.3,0,2.3-0.3,2.9-0.9c0.7-0.6,1-1.3,1-2.1
			c0-0.5-0.1-0.9-0.4-1.3s-0.8-0.7-1.5-0.9c-0.5-0.2-1.5-0.5-3.2-0.9c-2.2-0.6-3.7-1.3-4.5-2.1c-1.2-1.2-1.8-2.6-1.8-4.3
			c0-1.1,0.3-2.1,0.9-3.1c0.6-1,1.4-1.7,2.5-2.2s2.4-0.7,3.9-0.7c2.5,0,4.4,0.6,5.7,1.8s1.9,2.8,2,4.7l-4,0.2
			c-0.2-1.1-0.5-1.9-1.1-2.4s-1.4-0.7-2.6-0.7c-1.2,0-2.1,0.3-2.8,0.8c-0.4,0.3-0.6,0.8-0.6,1.3s0.2,0.9,0.6,1.3
			c0.5,0.5,1.7,0.9,3.7,1.4s3.4,1,4.4,1.5c0.9,0.5,1.7,1.3,2.2,2.2s0.8,2.1,0.8,3.4c0,1.2-0.3,2.4-1,3.5c-0.6,1.1-1.5,1.9-2.7,2.4
			c-1.2,0.5-2.6,0.8-4.3,0.8c-2.5,0-4.5-0.6-5.8-1.9C133.7,29.9,132.9,28.1,132.7,25.7z"/>
		<path d="M152.3,32.7V11.2h14.8v3.6h-10.8v4.8h10v3.6h-10V29h11.2v3.6h-15.2V32.7z"/>
		<path d="M170.9,11.2h7.4c1.7,0,2.9,0.1,3.8,0.4c1.2,0.4,2.2,1,3,2c0.8,0.9,1.5,2.1,1.9,3.5s0.7,3.1,0.7,5.1c0,1.8-0.2,3.3-0.6,4.6
			c-0.5,1.6-1.2,2.8-2.1,3.8c-0.7,0.7-1.6,1.3-2.8,1.7c-0.9,0.3-2.1,0.5-3.6,0.5H171L170.9,11.2L170.9,11.2z M174.9,14.9v14.2h3
			c1.1,0,1.9-0.1,2.4-0.2c0.7-0.2,1.2-0.5,1.6-0.9c0.4-0.4,0.8-1.1,1.1-2.1s0.4-2.3,0.4-3.9s-0.1-2.9-0.4-3.8s-0.7-1.6-1.1-2.1
			c-0.5-0.5-1.1-0.8-1.9-1c-0.6-0.1-1.7-0.2-3.3-0.2C176.7,14.9,174.9,14.9,174.9,14.9z"/>
	</g>
	<g>
		<g>
			<path class="st2" d="M13.2,31.6V10.1h6.5c2.5,0,4.1,0.1,4.8,0.3c1.1,0.3,2.1,1,2.9,2.1s1.2,2.5,1.2,4.2c0,1.3-0.2,2.4-0.7,3.3
				c-0.4,0.9-1,1.6-1.7,2.1s-1.4,0.9-2.1,1c-1,0.2-2.4,0.3-4.2,0.3h-2.6v8.1h-4.1V31.6z M17.2,13.7v6.1h2.2c1.6,0,2.7-0.1,3.2-0.3
				c0.5-0.2,1-0.6,1.3-1.1s0.5-1,0.5-1.7c0-0.8-0.2-1.4-0.6-1.9s-1-0.8-1.6-1c-0.5-0.1-1.4-0.1-2.9-0.1
				C19.3,13.7,17.2,13.7,17.2,13.7z"/>
			<path class="st2" d="M31.8,10.1h4v11.6c0,1.8,0,3,0.1,3.6c0.2,0.9,0.6,1.6,1.2,2.1c0.6,0.5,1.5,0.8,2.7,0.8c1.1,0,2-0.3,2.6-0.8
				s0.9-1.1,1-1.9s0.2-1.9,0.2-3.6V10.1h4v11.3c0,2.6-0.1,4.4-0.3,5.5s-0.6,2-1.2,2.7c-0.6,0.7-1.4,1.3-2.4,1.8
				c-1,0.4-2.3,0.7-3.8,0.7c-1.9,0-3.4-0.2-4.3-0.7c-1-0.5-1.8-1.1-2.3-1.8s-0.9-1.6-1.1-2.4c-0.3-1.2-0.4-3-0.4-5.4V10.1z"/>
			<path class="st2" d="M52,31.6V10.1h8.5c2.1,0,3.7,0.2,4.7,0.6c1,0.4,1.7,1.1,2.3,2.1c0.6,1,0.9,2.1,0.9,3.4c0,1.6-0.4,2.9-1.3,4
				c-0.9,1-2.2,1.7-4,2c0.9,0.5,1.6,1.1,2.2,1.8c0.6,0.7,1.3,1.8,2.3,3.5l2.4,4.2h-4.8L62.3,27c-1-1.7-1.7-2.7-2.1-3.2
				c-0.4-0.4-0.8-0.7-1.2-0.9c-0.4-0.2-1.1-0.2-2-0.2h-1v9L52,31.6L52,31.6z M56,19.2h3c1.9,0,3.1-0.1,3.6-0.3s0.9-0.5,1.1-0.9
				s0.4-1,0.4-1.6c0-0.7-0.2-1.3-0.5-1.8c-0.4-0.4-0.9-0.7-1.5-0.8c-0.3,0-1.3-0.1-2.9-0.1H56V19.2z"/>
			<path class="st2" d="M84.9,23.7l3.9,1.3c-0.6,2.3-1.6,4.1-3,5.2s-3.2,1.7-5.3,1.7c-2.7,0-4.8-1-6.5-2.9s-2.6-4.6-2.6-8
				c0-3.6,0.9-6.4,2.6-8.3c1.7-2,4-3,6.8-3c2.4,0,4.4,0.8,6,2.3c0.9,0.9,1.6,2.2,2,4l-4,1c-0.2-1.1-0.7-2-1.5-2.6
				c-0.7-0.6-1.7-1-2.7-1c-1.5,0-2.7,0.6-3.6,1.7s-1.4,3-1.4,5.6c0,2.7,0.5,4.6,1.4,5.8s2.1,1.7,3.5,1.7c1.1,0,2-0.4,2.8-1.1
				C84,26.4,84.6,25.2,84.9,23.7z"/>
			<path class="st2" d="M92.3,31.6V10.1h4v8.5h7.9v-8.5h4v21.5h-4v-9.4h-7.9v9.4H92.3z"/>
			<path class="st2" d="M130.4,31.6H126l-1.7-4.9h-8l-1.6,4.9h-4.3l7.8-21.5h4.3L130.4,31.6z M123,23.1l-2.8-8l-2.7,8H123z"/>
			<path class="st2" d="M131.5,24.6l3.9-0.4c0.2,1.4,0.7,2.5,1.4,3.1c0.7,0.7,1.7,1,2.9,1c1.3,0,2.3-0.3,2.9-0.9
				c0.7-0.6,1-1.3,1-2.1c0-0.5-0.1-0.9-0.4-1.3s-0.8-0.7-1.5-0.9c-0.5-0.2-1.5-0.5-3.2-0.9c-2.2-0.6-3.7-1.3-4.5-2.1
				c-1.2-1.2-1.8-2.6-1.8-4.3c0-1.1,0.3-2.1,0.9-3.1c0.6-1,1.4-1.7,2.5-2.2s2.4-0.7,3.9-0.7c2.5,0,4.4,0.6,5.7,1.8s1.9,2.8,2,4.7
				l-4,0.2c-0.2-1.1-0.5-1.9-1.1-2.4s-1.4-0.7-2.6-0.7c-1.2,0-2.1,0.3-2.8,0.8c-0.4,0.3-0.6,0.8-0.6,1.3c0,0.5,0.2,0.9,0.6,1.3
				c0.5,0.5,1.7,0.9,3.7,1.4s3.4,1,4.4,1.5c0.9,0.5,1.7,1.3,2.2,2.2s0.8,2.1,0.8,3.4c0,1.2-0.3,2.4-1,3.5c-0.6,1.1-1.5,1.9-2.7,2.4
				s-2.6,0.8-4.3,0.8c-2.5,0-4.5-0.6-5.8-1.9C132.6,28.8,131.8,27,131.5,24.6z"/>
			<path class="st2" d="M151.2,31.6V10.1H166v3.6h-10.8v4.8h10v3.6h-10v5.8h11.2v3.6L151.2,31.6L151.2,31.6z"/>
			<path class="st2" d="M169.8,10.1h7.4c1.7,0,2.9,0.1,3.8,0.4c1.2,0.4,2.2,1,3,2c0.8,0.9,1.5,2.1,1.9,3.5s0.7,3.1,0.7,5.1
				c0,1.8-0.2,3.3-0.6,4.6c-0.5,1.6-1.2,2.8-2.1,3.8c-0.7,0.7-1.6,1.3-2.8,1.7c-0.9,0.3-2.1,0.5-3.6,0.5h-7.6L169.8,10.1L169.8,10.1
				z M173.8,13.7v14.2h3c1.1,0,1.9-0.1,2.4-0.2c0.7-0.2,1.2-0.5,1.6-0.9c0.4-0.4,0.8-1.1,1.1-2.1s0.4-2.3,0.4-3.9s-0.1-2.9-0.4-3.8
				s-0.7-1.6-1.1-2.1s-1.1-0.8-1.9-1c-0.6-0.1-1.7-0.2-3.3-0.2H173.8z"/>
		</g>
	</g>
</g>
</svg>
