<?xml version="1.0" encoding="utf-8"?>
<!-- Generator: Adobe Illustrator 19.2.1, SVG Export Plug-In . SVG Version: 6.00 Build 0)  -->
<svg version="1.1" id="game_1_" xmlns="http://www.w3.org/2000/svg" xmlns:xlink="http://www.w3.org/1999/xlink" x="0px" y="0px"
	 viewBox="0 0 159.1 150" style="enable-background:new 0 0 159.1 150;" xml:space="preserve">
<style type="text/css">
	.st0{fill:url(#SVGID_1_);}
	.st1{clip-path:url(#SVGID_3_);}
	.st2{fill:#FFFFFF;}
	.st3{fill:#00A8E6;}
</style>
<g>
	<radialGradient id="SVGID_1_" cx="81.2224" cy="76.6796" r="63.2637" gradientUnits="userSpaceOnUse">
		<stop  offset="0.749" style="stop-color:#000000"/>
		<stop  offset="0.7709" style="stop-color:#0C0C0C;stop-opacity:0.9128"/>
		<stop  offset="0.8101" style="stop-color:#2B2B2B;stop-opacity:0.7566"/>
		<stop  offset="0.8622" style="stop-color:#5D5D5D;stop-opacity:0.5491"/>
		<stop  offset="0.9251" style="stop-color:#A3A3A3;stop-opacity:0.2983"/>
		<stop  offset="0.9966" style="stop-color:#FBFBFB;stop-opacity:1.352972e-002"/>
		<stop  offset="1" style="stop-color:#FFFFFF;stop-opacity:0"/>
	</radialGradient>
	<circle class="st0" cx="81.2" cy="76.7" r="63.3"/>
</g>
<g>
	<defs>
		<circle id="SVGID_2_" cx="79.6" cy="75" r="56.7"/>
	</defs>
	<clipPath id="SVGID_3_">
		<use xlink:href="#SVGID_2_"  style="overflow:visible;"/>
	</clipPath>
	<g class="st1">
		<rect x="14.9" y="14.5" class="st2" width="131.8" height="122.8"/>
		<path class="st3" d="M38.1,30c0,0.4,0,0.8,0,1.2c0,0,0.1,0,0.1,0c0-0.1,0.1-0.3,0.1-0.4c0.1-0.4,0.1-0.8,0.2-1.2
			c0-0.1,0.2-0.4-0.2-0.4c0-0.1,0-0.2,0-0.4c0.1-0.6,0.1-1.2,0.3-1.8c0-0.2,0.2-0.3,0.4-0.5c-0.4-0.9,0.4-1.7,0.6-2.6
			c0.1-0.4,0.2-0.8,0.3-1.2c0.2-0.6,0.3-1.2,0.5-1.8c0.1-0.3,0.4-0.6,0.5-0.9c0.2-0.5,0.3-1.1,0.6-1.7c0.5-0.9,1-1.8,1.6-2.7
			c0.3-0.4,0.7-0.6,1.1-0.9c0.1-0.1,0.2-0.1,0.3-0.2c0.2-0.6,0.9-0.8,1.4-1.1c0.6-0.5,1.3-0.5,2-0.7c0.5-0.2,0.9-0.3,1.4-0.5
			c0.6-0.3,1.3-0.1,1.9-0.1c1.1,0.1,2.2,0.3,3.2,0.4c0.1,0,0.4,0.1,0.4,0.2c0.1,0.5,0.4,0.3,0.7,0.4c0.7,0.2,1.5,0.3,1.9,0.8
			c0.4,0.4,0.9,0.4,1.3,0.7c0.5,0.4,1.2,0.6,1.6,1c0.4,0.4,1,0.7,1.4,1c0.7,0.5,1.6,0.8,1.9,1.7c0,0.1,0.2,0.2,0.3,0.2
			c1.2,0.5,1.9,1.5,2.8,2.4c0.5,0.6,1.2,1.1,1.6,1.8c0.8,1.3,1.4,2.7,2.1,4c0.1,0.1,0.2,0.2,0.3,0.4c0.2,0.3,0.5,0.6,0.7,1
			c0.3,0.5,0.5,1,0.8,1.5c0.2,0.3,0.4,0.5,0.6,0.8c-0.1,0-0.2,0.1-0.3,0.2c0,0,0,0.1,0.1,0.1c0.8,1.2,1.4,2.6,1.5,4.1
			c0.1,0.5,0,1,0.1,1.5c0.1,0.7,0.4,1.4,0.5,2c0.2,1.2,0.3,2.4,0.5,3.6c0.1,0.5,0.3,0.9,0.8,1.1c0.6,0.2,1.3,0.3,1.7,0.9
			c0,0,0.1,0,0.1,0c1.5,0,2.8,0.7,4.1,1c0.5,0.1,1,0.3,1.6,0.4c-0.4,0-0.8,0-1.2,0c0,0,0,0.1,0,0.1c0.1,0,0.3,0.1,0.4,0.1
			c2.2-0.1,4.4,0.3,6.6,0.8c0.4,0.1,0.9,0,1.2,0.2c0.9,0.6,1.9,0.5,2.9,0.9c0.5,0.2,0.9,0.3,1.4,0.4c0.2,0.1,0.4,0.3,0.6,0.5
			c0.1,0.1,0.1,0.1,0.2,0.1c0.6,0.1,1.2,0.2,1.8,0.3c0.4,0,0.8,0,1,0.4c0,0.1,0.2,0.1,0.4,0.1c0.9,0,1.8,0.5,2.3,1.2
			c0.7,1,1.9,1.7,2.2,2.9c0.2,0.7,0.9,0.9,1.2,1.4c0.4,0.8,0.7,1.5,1.1,2.3c0,0,0,0.1,0.1,0.1c0.7,0.6,0.8,1.6,1.1,2.4
			c0.1,0.2,0,0.5,0,0.8c0.4,0.2,0.6,0.8,0.6,1.4c-0.1,1.3,0.3,2.4,0.9,3.4c1,2.1,1.4,4.3,1.9,6.6c-0.1,0-0.2,0-0.3,0
			c0.8,0.7,0.7,1.8,0.8,2.7c0.1,1.1,0,2.3,0,3.4c-0.1-0.1-0.2-0.1-0.2-0.1c-0.2,0.8-0.3,1.6-0.5,2.4c-0.1,0.2-0.3,0.4-0.4,0.6
			c-0.4,0.5-0.7,0.9-1.1,1.4c-0.5,0.7-1,1.3-1.5,2c-0.4,0.6-0.8,1.3-1.2,2c-0.1,0.2-0.4,0.3-0.5,0.5c-0.1,0.1-0.2,0.2-0.2,0.3
			c-0.5,0.9-0.9,1.9-1.4,2.8c-0.2,0.4-0.4,0.8-0.5,1.2c-0.2,0.7-0.3,1.4-0.9,1.9c-0.3,0.2-0.2,0.8-0.3,1.2c-0.2,0.6-0.4,1.1-0.6,1.6
			c0,0.1-0.1,0.1-0.1,0.2c-0.2,1.4-1.5,1.7-2.4,2.4c-0.3,0.2-0.7,0.4-1.1,0c-0.1,0-0.2,0-0.3,0c-0.7-0.1-1.3-0.1-2-0.2
			c-0.3,0-0.6,0-0.7-0.4c0-0.1-0.3-0.2-0.5-0.2c-0.5-0.2-1-0.3-1.3-0.8c0,0-0.4,0-0.4,0.1c-0.2,0.9-0.4,1.8-0.5,2.7
			c-0.1,0.6-0.2,1.2-0.2,1.8c-0.1,0-0.1,0-0.2,0c0-0.3,0-0.5,0-0.8c0,0-0.1,0-0.1,0c0,0.7,0,1.4,0,2.1c0,0.6,0,1.2-0.5,1.7
			c0,0,0,0.1,0,0.1c-0.1,0.6-0.2,1.2-0.3,1.8c-0.1,0.5-0.3,1-0.5,1.5c-1.1,2.6-2.2,5.2-3.3,7.8c-0.2,0.5-0.7,0.8-1,1.2
			c-0.2,0.3-0.5,0.6-0.7,0.9c-0.1,0.2-0.2,0.2-0.5,0.2c-0.4,0-0.8,0.2-1.2,0.3c-0.1,0-0.1,0.1-0.2,0.1c-1.2-0.1-2.4,0.3-3.5-0.4
			c-0.1-0.1-0.4,0-0.5-0.1c-0.5-0.3-1.1-0.5-1.7-0.5c-0.1,0-0.3-0.1-0.3-0.2c-0.1-0.5-0.5-0.5-0.9-0.4c-0.1,0-0.3-0.1-0.4-0.1
			c-0.3-0.2-0.6-0.4-0.9-0.5c-1.1-0.3-2.1-0.5-3.2-0.7c-0.3-0.1-0.7-0.2-0.8-0.4c-0.5-0.7-1.3-0.6-2-0.9c-0.8-0.3-1.6-0.7-2.3-1.1
			c-0.5-0.3-0.9-0.6-1.4-0.9c-0.1-0.1-0.3-0.2-0.4-0.1c-0.6,0.2-1-0.3-1.4-0.6c-0.2-0.1-0.3-0.3-0.5-0.6c-0.2-0.2-0.3-0.4-0.5-0.5
			c-0.3-0.2-0.7-0.2-1-0.3c-0.7-0.4-1.4-0.7-1.9-1.3c-1.2-1.1-1.5-2.7-2.1-4.1c-0.2-0.5-0.6-0.9-1-1.4c-0.3-0.4-0.6-0.8-1-1.2
			c-0.1-0.1-0.2-0.3-0.3-0.3c-0.6-0.1-0.9-0.6-1.3-1c-0.2-0.2-0.3-0.4-0.5-0.5c-1-0.6-1.8-1.4-2.4-2.4c-0.4-0.5-0.8-1.1-1.2-1.6
			c-0.7-1.1-1-2.3-0.9-3.7c0.1-1.6,0-3.2-0.6-4.7c-0.1-0.3-0.2-0.6-0.4-0.9c-0.7-1-1.4-2.1-1.6-3.4c0-0.2-0.1-0.4-0.2-0.5
			c-1.1-1.2-0.9-2.7-0.8-4.1c0.1-1,0.3-2,1-2.9c0,0,0-0.1,0-0.1c0.3-1.9,1.7-3.2,2.7-4.7c0.6-0.8,1.2-1.6,1.8-2.3
			c0.1-0.2,0.2-0.5,0.4-0.6c0.7-0.5,0.8-1.1,0.8-1.9c0-1.6,0-3.1-0.1-4.7c-0.1-0.7-0.6-1.3-1.1-1.9c-1.3-1.7-2.6-3.3-3.9-5
			c-0.3-0.4-0.5-0.9-0.7-1.3c0,0-0.1-0.1-0.1-0.1c-0.7-0.3-0.9-1-1.3-1.6c-0.3-0.6-0.7-1.1-1.1-1.6c-0.1-0.1-0.2-0.2-0.2-0.3
			c-0.3-0.5-0.8-0.9-0.9-1.4c-0.2-0.9-0.9-1.3-1.4-1.9c-0.2-0.3-0.3-0.8-0.5-1.2c-0.2-0.3-0.4-0.7-0.5-1c-0.1-0.3-0.3-0.6-0.4-0.8
			c-0.1-0.2-0.2-0.4-0.3-0.6c-0.1-0.1-0.2-0.2-0.3-0.4c-0.3-1-0.6-2-0.9-3c-0.1-0.3-0.1-0.7-0.1-1c0-0.3,0.2-0.7-0.4-0.7
			c-0.1,0-0.2-0.3-0.2-0.5c0-2,0.1-4,0.2-6C38,30.9,38,30.4,38.1,30C38.1,30,38.1,30,38.1,30z M73,46c0,0.1,0.1,0.2,0.1,0.3
			c-0.4,0.2-0.8,0.4-1.2,0.5c-1,0.4-2.1,0.5-3,1c-2.4,1.3-5,2.2-7.6,2.9c-1.4,0.3-2.6,1-3.6,2.2c-0.5,0.6-1.1,1.1-1.7,1.6
			c-1,1-1.9,2.1-2.2,3.5c-0.3,1.2-0.2,2.5,0,3.8c0.1,1.1,0.3,2.2,0.2,3.3c-0.1,1.5-0.4,2.8-1.3,4.1c-1.6,2.3-3,4.7-4.4,7.1
			c-1,1.7-1.2,3.6-0.2,5.4c0.9,1.7,1.8,3.4,2.7,5.2c0.2,0.3,0.3,0.6,0.4,1c0.3,1.6,0.6,3.2,0.7,4.8c0.2,1.9,0.9,3.5,2.5,4.5
			c0,0,0.1,0,0.1,0.1c1,0.8,1.9,1.5,2.9,2.3c1.2,1,2.1,2.4,2.7,3.8c1,2.2,2.7,3.6,4.7,4.8c2.3,1.3,4.6,2.5,7,3.6
			c2.4,1.1,4.8,2,7.2,3.1c1,0.4,2,0.9,3.1,1c2.2,0.2,2.5,0,3.4-1.6c0.7-1.1,1.2-2.3,1.8-3.5c0.1-0.3,0.1-0.6,0.1-0.9
			c-0.4,0-0.7,0.1-1,0.1c-0.9,0.1-1.9,0.3-2.8,0.3c-2.1,0.1-4.1,0-6.1-0.7c-2.5-0.8-5-1.8-7.6-2.7c-2.7-1-5.4-1.9-8.1-2.9
			c-0.6-0.2-0.9-1-0.6-1.6c0.1-0.1,0.3-0.3,0.5-0.3c0.4,0,0.8,0,1.2,0.1c1.1,0.3,2.1,0.6,3.1,1c4.3,1.5,8.4,3.3,12.8,4.5
			c2.2,0.6,4.3,1,6.5,0.5c1.6-0.4,3-1.2,3.5-2.9c0.5-1.7,1-3.4,1.4-5.2c0.2-1,0.3-2.1,0.4-3.2c-0.1,0-0.1-0.1-0.2-0.1
			c-0.2,0.1-0.4,0.3-0.6,0.4c-0.2,0.2-0.4,0.4-0.6,0.6c-1.4,0.7-2.7,1.4-4.3,1.5c-2.8,0.1-5.4-0.4-8-1.6c-1.6-0.7-3.3-1.4-4.9-2.1
			c-4.5-1.9-9.2-3.2-13.5-5.7c-0.4-0.2-0.6-0.5-0.6-0.9c0-0.7,0.3-0.9,1-0.6c0.4,0.2,0.9,0.4,1.3,0.6c6.2,2.6,12.6,4.8,18.6,7.7
			c2.2,1.1,4.6,1.4,7.1,1c1.8-0.2,3.1-1.1,3.8-2.9c1.1-2.6,1.1-5.3,1-8c0-1-0.8-1.4-1.8-1.2c-1.2,0.2-2.5,0.4-3.7,0.2
			c-2.3-0.6-4.5-1.3-6.6-2.6c-3.2-2-6.5-3.9-9.7-6c-1.7-1.1-3.3-2.5-5-3.7c-0.2-0.2-0.4-0.4-0.5-0.6c-0.1-0.2,0.1-0.6,0.2-0.6
			c0.3-0.1,0.8-0.1,1,0c0.9,0.6,1.7,1.3,2.6,1.9c1.2,0.9,2.3,1.9,3.5,2.7c2.6,1.6,5.3,3.1,7.9,4.6c2.3,1.4,4.9,2.3,7.5,2.9
			c0.8,0.2,1.7,0.2,2.4-0.3c1.7-1.2,3.1-2.6,3.8-4.6c1.3-3.1,2.1-6.4,2.8-9.7c0.4-2-0.2-3.5-2-4.5c-0.8-0.5-1.6-1-2.3-1.5
			c-0.4-0.3-0.8-0.3-1.3-0.2c0.1,0.4,0.2,0.9,0.3,1.3c0.1,0.4,0.2,0.8,0.4,1.2c-0.1,0-0.1,0.1-0.2,0.1c-0.2-0.1-0.4-0.2-0.6-0.3
			c-0.6-0.5-1.1-1.1-1.6-1.7c-2.6-2.7-5.6-4.8-8.6-7c-2.7-2-5.8-3.4-9.2-3.9c-0.2,0-0.3-0.2-0.6-0.4c0.5,0,0.9,0.1,1.2,0.1
			c1.1,0.1,2.2,0.2,3.3,0.5c0.9,0.2,1.8,0.7,2.7,1.1c1.2,0.6,2.3,1.2,3.4,1.8c0.5,0.3,1.1,0.3,1.7,0.2c1.3-0.3,2.6-0.3,3.9,0.3
			c2.8,1.4,5.5,3.1,7.7,5.5c2,2.2,3,4.7,2.6,7.7c-0.4,2.8-1,5.6-1.9,8.3c-1.3,3.5-2,7-2.1,10.7c-0.1,2.2,0.3,4.4,1.7,6.2
			c0.7,0.9,1.5,1.5,2.6,1.7c2,0.3,2.7-0.1,3.5-1.5c0.5-0.8,0.9-1.7,1.4-2.5c1-1.9,1.9-3.8,3-5.6c1.2-2,2.6-3.9,3.8-6
			c0.6-1,1.1-2.2,1.4-3.3c0.6-2,0.3-4-0.2-5.9c-0.9-3.2-1.8-6.5-2.7-9.7c-0.2-0.8-0.2-1.5-0.6-2.3c-1.5-2.7-3.1-5.3-4.9-7.9
			c-0.8-1.1-1.9-1.9-3.2-2.2c-1-0.2-2-0.5-3.1-0.8c-3.6-1.2-7.3-1.9-11.1-2.4c-1.9-0.3-3.8-0.6-5.6-1.3C74.9,43.9,72,42,69,40
			c-0.6-0.4-1-0.9-1.6-1.4c0-0.1,0.1-0.1,0.1-0.2c0.2,0.1,0.4,0.2,0.5,0.3c1.4,0.8,2.9,1.6,4.3,2.4c0.4,0.3,0.8,0.2,1.1,0
			c0.2-0.2,0.3-0.5,0.2-0.8c-0.1-1.1-0.2-2.3-0.4-3.4c-0.3-2-0.7-4-1.7-5.8c-1.1-2-2.1-4.1-3.2-6.1c-0.9-1.7-2-3.1-3.2-4.6
			c-0.1-0.1-0.3-0.3-0.4-0.4c-0.6-0.5-1.2-0.9-1.8-1.4c-1.8-1.4-3.6-2.9-5.7-3.8c-1.5-0.7-3.1-1.2-4.7-1.8c-0.9-0.4-1.9-0.5-2.9-0.3
			c-1.4,0.2-2.8,0.3-3.9,1.3c-0.2,0.2-0.6,0.4-0.8,0.6c-0.3,0.3-0.8,0.5-1,0.8c-0.8,1.2-1.7,2.4-2.2,3.8c-1.3,3.5-2.5,7.1-2.9,11
			c-0.4,3.6-0.3,7.2,1.2,10.6c1.4,3.1,3,6.1,5.2,8.8c2,2.4,3.8,5,5.8,7.6c0.7,0.9,1.1,0.8,1.5,0.1c0.9-1.7,2.3-3.1,3.7-4.4
			c1.5-1.4,3.1-2.6,5.2-3.2c2.2-0.6,4.3-1.4,6.4-2.2c1.3-0.5,2.6-1.2,4-1.4C72.3,46.1,72.7,46.1,73,46z M83.9,57c-0.1,0-0.1,0-0.2,0
			c-0.4,0-0.8,0-0.9,0.4c-0.1,0.4,0,0.8,0.4,1.1c1.2,0.9,2.4,1.8,3.6,2.6c0.6,0.5,1.4,0.8,2.2,0.8c1.1,0,2.1,0.4,3.1,0.9
			c0.2,0.1,0.4,0,0.6,0c0-0.3,0-0.6-0.1-0.8c-0.2-0.3-0.5-0.4-0.8-0.6c-1.8-1.2-3.6-2.5-5.4-3.7C85.7,57.4,84.9,56.9,83.9,57z"/>
		<path class="st2" d="M73,46c-0.3,0-0.7,0.1-1,0.1c-1.4,0.2-2.7,0.9-4,1.4c-2.1,0.8-4.2,1.6-6.4,2.2c-2.1,0.6-3.7,1.7-5.2,3.2
			c-1.4,1.3-2.8,2.7-3.7,4.4c-0.3,0.6-0.8,0.8-1.5-0.1c-1.9-2.5-3.8-5.1-5.8-7.6c-2.2-2.7-3.8-5.6-5.2-8.8c-1.5-3.4-1.6-7-1.2-10.6
			c0.4-3.8,1.6-7.4,2.9-11c0.5-1.3,1.4-2.5,2.2-3.8c0.2-0.3,0.7-0.6,1-0.8c0.3-0.2,0.6-0.3,0.8-0.6c1.1-1.1,2.5-1.1,3.9-1.3
			c1-0.1,2,0,2.9,0.3c1.6,0.6,3.2,1.1,4.7,1.8c2.1,0.9,3.9,2.4,5.7,3.8c0.6,0.5,1.2,0.9,1.8,1.4c0.1,0.1,0.3,0.2,0.4,0.4
			c1.2,1.5,2.4,2.9,3.2,4.6c1,2,2.1,4.1,3.2,6.1c1,1.8,1.4,3.8,1.7,5.8c0.2,1.1,0.3,2.3,0.4,3.4c0,0.3-0.1,0.6-0.2,0.8
			c-0.3,0.3-0.7,0.3-1.1,0c-1.4-0.9-2.8-1.6-4.3-2.4c-0.2-0.1-0.4-0.2-0.5-0.3c0,0.1-0.1,0.1-0.1,0.2c0.5,0.5,1,1,1.6,1.4
			c3,1.9,6,3.8,9.2,5.3c1.8,0.8,3.7,1.1,5.6,1.3c3.8,0.5,7.5,1.2,11.1,2.4c1,0.3,2,0.6,3.1,0.8c1.4,0.3,2.4,1.1,3.2,2.2
			c1.8,2.5,3.4,5.1,4.9,7.9c0.4,0.8,0.4,1.5,0.6,2.3c0.9,3.2,1.7,6.5,2.7,9.7c0.6,2,0.8,4,0.2,5.9c-0.3,1.2-0.8,2.3-1.4,3.3
			c-1.2,2-2.6,3.9-3.8,6c-1.1,1.8-2,3.7-3,5.6c-0.4,0.8-0.9,1.7-1.4,2.5c-0.8,1.4-1.5,1.8-3.5,1.5c-1.1-0.1-1.9-0.8-2.6-1.7
			c-1.4-1.8-1.8-3.9-1.7-6.2c0.1-3.7,0.9-7.3,2.1-10.7c1-2.7,1.6-5.4,1.9-8.3c0.4-3-0.7-5.6-2.6-7.7c-2.1-2.3-4.8-4.1-7.7-5.5
			c-1.2-0.6-2.5-0.6-3.9-0.3c-0.6,0.1-1.1,0.1-1.7-0.2c-1.1-0.6-2.3-1.2-3.4-1.8c-0.9-0.4-1.8-0.9-2.7-1.1c-1.1-0.3-2.2-0.3-3.3-0.5
			c-0.3,0-0.7-0.1-1.2-0.1c0.2,0.2,0.4,0.4,0.6,0.4c3.4,0.5,6.4,1.9,9.2,3.9c3,2.2,6,4.4,8.6,7c0.5,0.6,1.1,1.1,1.6,1.7
			c0.1,0.1,0.4,0.2,0.6,0.3c0.1,0,0.1-0.1,0.2-0.1c-0.1-0.4-0.2-0.8-0.4-1.2c-0.1-0.4-0.2-0.9-0.3-1.3c0.5-0.1,0.9-0.1,1.3,0.2
			c0.7,0.6,1.5,1.1,2.3,1.5c1.8,1,2.4,2.5,2,4.5c-0.7,3.3-1.5,6.6-2.8,9.7c-0.8,1.9-2.1,3.4-3.8,4.6c-0.8,0.5-1.6,0.5-2.4,0.3
			c-2.7-0.6-5.2-1.5-7.5-2.9c-2.6-1.6-5.3-3-7.9-4.6c-1.3-0.8-2.4-1.8-3.5-2.7c-0.9-0.6-1.7-1.3-2.6-1.9c-0.2-0.2-0.7-0.1-1,0
			c-0.1,0-0.2,0.5-0.2,0.6c0.1,0.2,0.3,0.5,0.5,0.6c1.6,1.3,3.2,2.6,5,3.7c3.2,2.1,6.5,4,9.7,6c2,1.3,4.3,2,6.6,2.6
			c1.1,0.3,2.5,0,3.7-0.2c1-0.2,1.8,0.2,1.8,1.2c0.1,2.7,0,5.4-1,8c-0.7,1.7-2,2.6-3.8,2.9c-2.5,0.3-4.9,0-7.1-1
			c-6.1-2.9-12.4-5.1-18.6-7.7c-0.4-0.2-0.9-0.4-1.3-0.6c-0.7-0.3-1-0.1-1,0.6c0,0.5,0.2,0.7,0.6,0.9c4.2,2.5,9,3.8,13.5,5.7
			c1.6,0.7,3.3,1.4,4.9,2.1c2.5,1.1,5.2,1.7,8,1.6c1.6-0.1,3-0.8,4.3-1.5c0.2-0.1,0.4-0.4,0.6-0.6c0.2-0.2,0.4-0.3,0.6-0.4
			c0.1,0,0.1,0.1,0.2,0.1c-0.1,1.1-0.1,2.2-0.4,3.2c-0.4,1.7-0.9,3.5-1.4,5.2c-0.5,1.7-1.9,2.5-3.5,2.9c-2.2,0.5-4.4,0.1-6.5-0.5
			c-4.4-1.2-8.5-3-12.8-4.5c-1-0.4-2.1-0.7-3.1-1c-0.4-0.1-0.8-0.1-1.2-0.1c-0.2,0-0.4,0.1-0.5,0.3c-0.4,0.5,0,1.4,0.6,1.6
			c2.7,1,5.4,1.9,8.1,2.9c2.5,0.9,5,1.9,7.6,2.7c2,0.6,4,0.7,6.1,0.7c0.9,0,1.9-0.2,2.8-0.3c0.3,0,0.6-0.1,1-0.1
			c0,0.4,0,0.7-0.1,0.9c-0.6,1.2-1.1,2.4-1.8,3.5c-1,1.7-1.2,1.8-3.4,1.6c-1.1-0.1-2.1-0.5-3.1-1c-2.4-1-4.9-2-7.2-3.1
			c-2.4-1.1-4.7-2.3-7-3.6c-2-1.1-3.7-2.6-4.7-4.8c-0.6-1.4-1.5-2.8-2.7-3.8c-0.9-0.8-1.9-1.5-2.9-2.3c0,0-0.1,0-0.1-0.1
			c-1.6-1-2.3-2.6-2.5-4.5c-0.1-1.6-0.4-3.2-0.7-4.8c-0.1-0.3-0.2-0.7-0.4-1c-0.9-1.7-1.8-3.4-2.7-5.2c-0.9-1.8-0.8-3.7,0.2-5.4
			c1.4-2.4,2.9-4.8,4.4-7.1c0.9-1.3,1.2-2.6,1.3-4.1c0.1-1.1-0.1-2.2-0.2-3.3c-0.2-1.2-0.2-2.6,0-3.8c0.3-1.4,1.2-2.5,2.2-3.5
			c0.6-0.5,1.2-1,1.7-1.6c1-1.1,2.2-1.8,3.6-2.2c2.7-0.6,5.2-1.6,7.6-2.9c0.9-0.5,2-0.7,3-1c0.4-0.1,0.8-0.3,1.2-0.5
			C73.1,46.2,73,46.1,73,46z"/>
		<path class="st2" d="M83.9,57c1-0.1,1.8,0.4,2.6,0.9c1.8,1.2,3.6,2.4,5.4,3.7c0.3,0.2,0.6,0.4,0.8,0.6c0.1,0.2,0.1,0.5,0.1,0.8
			c-0.2,0-0.5,0.1-0.6,0c-1-0.5-2-0.9-3.1-0.9c-0.8,0-1.5-0.3-2.2-0.8c-1.2-0.9-2.4-1.8-3.6-2.6c-0.4-0.3-0.5-0.7-0.4-1.1
			c0.1-0.4,0.5-0.5,0.9-0.4C83.8,57,83.8,57,83.9,57z"/>
	</g>
</g>
</svg>
