<?xml version="1.0" encoding="utf-8"?>
<!-- Generator: Adobe Illustrator 19.2.1, SVG Export Plug-In . SVG Version: 6.00 Build 0)  -->
<svg version="1.1" id="game_1_" xmlns="http://www.w3.org/2000/svg" xmlns:xlink="http://www.w3.org/1999/xlink" x="0px" y="0px"
	 viewBox="0 0 159.1 150" style="enable-background:new 0 0 159.1 150;" xml:space="preserve">
<style type="text/css">
	.st0{fill:url(#SVGID_1_);}
	.st1{clip-path:url(#SVGID_3_);}
	.st2{fill:#FFFFFF;}
	.st3{fill:#00A8E6;}
</style>
<g>
	<radialGradient id="SVGID_1_" cx="81.2224" cy="76.6796" r="63.2637" gradientUnits="userSpaceOnUse">
		<stop  offset="0.749" style="stop-color:#000000"/>
		<stop  offset="0.7709" style="stop-color:#0C0C0C;stop-opacity:0.9128"/>
		<stop  offset="0.8101" style="stop-color:#2B2B2B;stop-opacity:0.7566"/>
		<stop  offset="0.8622" style="stop-color:#5D5D5D;stop-opacity:0.5491"/>
		<stop  offset="0.9251" style="stop-color:#A3A3A3;stop-opacity:0.2983"/>
		<stop  offset="0.9966" style="stop-color:#FBFBFB;stop-opacity:1.352972e-002"/>
		<stop  offset="1" style="stop-color:#FFFFFF;stop-opacity:0"/>
	</radialGradient>
	<circle class="st0" cx="81.2" cy="76.7" r="63.3"/>
</g>
<g>
	<defs>
		<circle id="SVGID_2_" cx="79.6" cy="75" r="56.7"/>
	</defs>
	<clipPath id="SVGID_3_">
		<use xlink:href="#SVGID_2_"  style="overflow:visible;"/>
	</clipPath>
	<g class="st1">
		<rect x="14.9" y="14.5" class="st2" width="131.8" height="122.8"/>
		<path class="st3" d="M52.5,87.6c-0.3-0.1-0.4-0.4-0.4-0.7c-0.1-0.9-0.3-1.8-0.3-2.7c0-0.5,0.4-1,0.6-1.5c0.1-0.1,0.2-0.3,0.2-0.4
			c1.2-2,2.3-4.2,3.7-6.1c0.8-1.1,0.8-2.3,0.4-3.5c-0.3-0.7-0.6-1.5-0.5-2.3c0-0.2-0.2-0.4-0.3-0.6c0.2-0.2,0.4-0.3,0.1-0.6
			c-0.2-0.1-0.2-0.6-0.1-0.9c0.1-0.4,0.2-0.5-0.4-0.5c0.1-0.2,0.2-0.4,0.3-0.6c0-0.1,0.1-0.2,0.1-0.2c-0.1-0.1-0.2-0.1-0.4-0.1
			c0-0.3,0-0.6,0-0.9c0-0.1,0.1-0.2,0.2-0.3c0.3-0.3,0.3-0.7,0-0.9c-0.2-0.1-0.2-0.2-0.1-0.3c0.1-0.2,0.2-0.5,0.4-0.7
			c0-0.1,0.1-0.2,0.2-0.2c0-0.1,0.1-0.2,0.1-0.3c-0.2-0.3,0-0.5,0.1-0.7c0.4-0.8,0.8-1.6,1.2-2.4c0.1-0.2,0.3-0.3,0.5-0.5
			c0.1-0.1,0.1-0.2,0.1-0.3c0.1-0.4,0.1-0.9,0.3-1.3c0.4-0.6,0.3-1.3,0.6-1.9c0.3-0.6,0.6-1.2,0.9-1.8c0.2-0.5,0.3-1,0.5-1.5
			c0.1-0.3,0.2-0.3-0.1-0.5c0.1-0.1,0.3-0.1,0.3-0.2c0-0.1-0.1-0.3-0.1-0.4c0-0.2,0-0.4,0.1-0.6c0.1-0.2,0.4-0.5,0.4-0.7
			c0.1-1.4,0.2-2.8-0.1-4.2c-0.1-0.6-0.5-1.1-0.9-1.5c-0.6-0.5-1.2-0.9-1.8-1.5c-0.3-0.3-0.5-0.6-0.7-0.9c-0.2-0.2-0.2-0.5-0.6-0.6
			c-0.3-0.1-0.6-0.5-0.8-0.8c-0.7-1-1.5-1.9-2-2.9c-0.6-1.1-1.1-2.3-1.7-3.5c-0.1-0.2-0.3-0.5-0.5-0.7c-0.3-0.3-0.2-0.6,0-1
			c-0.8-0.4-0.9-1.2-1.1-1.9c-0.3-0.7-0.5-1.4-0.7-2.1c-0.1-0.5-0.2-1-0.3-1.5c0-0.1-0.1-0.3-0.2-0.5c0.2-0.2,0.1-0.2-0.2-0.6
			C49.1,26,49,25.7,49,25.4c-0.1-0.4-0.1-0.8-0.2-1.2c-0.1-0.2-0.2-0.4-0.3-0.6c0,0,0,0,0-0.1c-0.1-0.6-0.1-1.2-0.2-1.8
			c0-0.2,0.1-0.3,0.1-0.5c0-2.7,0-5.5,0-8.2c0-0.6,0.1-1.1,0.3-1.6c0.5-1.1,1-2.2,1.6-3.3c0.1-0.2,0.2-0.5,0.3-0.6
			c0.3-0.4,0.6-0.8,0.9-1.1c0.7-0.6,1.6-1.1,2.3-1.8C53.9,4.5,54,4.2,54.2,4c0.3-0.4,0.8-0.6,1.2-0.7c0.6-0.1,1.2-0.2,1.9-0.2
			c1,0,2.1,0,3.1-0.1C62,2.9,63.5,2.9,65,3.5c0.3,0.1,0.6,0,0.7,0.4c0,0,0.2,0.1,0.3,0.1c0.7,0,1.3,0.1,1.9,0.5
			c1.3,0.7,2.7,1.5,4,2.3c0.2,0.1,0.4,0.2,0.3,0.5c0,0.1,0.2,0.2,0.3,0.3c0.1-0.1,0.2-0.1,0.3-0.2c0.2,0.2,0.4,0.3,0.6,0.5
			c1.2,1,2.4,2,3.6,3c0.4,0.3,0.6,0.8,0.9,1.2c0.1,0.2,0.3,0.4,0.4,0.5c0.3,0.2,0.5,0.4,0.5,0.8c0,0.1,0.2,0.3,0.3,0.4
			c0.2,0.2,0.4,0.4,0.3,0.7c0,0.1,0,0.3,0.1,0.3c0.3,0,0.3,0.3,0.4,0.5c0.2,0.5,0.3,1,0.5,1.5c0,0.1,0.1,0.1,0.2,0.1
			c0.3,0.4,0.5,0.8,0.8,1.3c0.1,0.1,0,0.3,0.1,0.5c1,2.3,1.5,4.8,1.9,7.2c0.2,1.1,0.1,2.3,0.2,3.4c0,0.6,0.1,1.2,0.2,1.8
			c0,0.6,0.4,0.8,0.8,1.1c1.3,0.8,2.6,1.7,3.9,2.5c0.7,0.5,1.5,0.9,2.2,1.3c0.2,0.1,0.4,0.2,0.6,0.4c0.1,0.1,0.1,0.2,0.2,0.3
			c0.1,0.1,0.1,0.3,0.2,0.3c1,0.5,2,0.9,3,1.5c0.9,0.5,1.8,1.2,2.7,1.9c1,0.7,1.9,1.4,2.8,2.2c0.4,0.3,0.8,0.6,0.9,1.1c0,0,0,0,0,0
			c0.4,0.3,0.8,0.6,1.1,0.9c0.2,0.2,0.5,0.3,0.8,0.5c0.1,0.1,0.1,0.2,0.2,0.3c0,0.1,0,0.2,0.1,0.2c0.7,0.2,0.8,1,1.3,1.3
			c0.9,0.5,1.3,1.6,1.9,2.3c0.5,0.6,0.7,1.4,1,2.2c0,0,0,0.1,0,0.1c-0.2,0.3,0,0.5,0.2,0.5c0.1,1.2-0.3,2.3,0.3,3.4c0,0,0.1,0,0.1,0
			c0-0.2,0-0.4,0-0.6c0,0,0,0,0,0c0,0.3,0.1,0.7,0.1,1.1c-0.1-0.1-0.2-0.1-0.3-0.2c0.1,0.5-0.1,0.9,0.2,1.3c0.1,0.1,0.1,0.4,0.1,0.7
			c-0.1-0.1-0.2-0.2-0.3-0.4c0,0.6,0,1.2,0,1.7c0.1,0,0.2-0.1,0.3-0.2c0.1,1.4,0.2,2.8,0.3,4.3c0.1-0.2,0.2-0.4,0.3-0.6
			c0.4,1.4,0.5,2.7,0.5,4.1c0,1.4,0,2.8,0,4.2c0,0.4-0.1,0.8-0.2,1.2c-0.1,0.4-0.1,0.7-0.1,1.1c0.2,0,0.2-0.1,0.4-0.1
			c-0.4,1.8-1.3,3.4-1.5,5.2c-0.2-0.1-0.3-0.1-0.4-0.2c0,0.1-0.1,0.3-0.1,0.4c0.2,0.3,0,0.5,0,0.8c-0.3,0.8-0.6,1.7-0.9,2.5
			c-0.2,0.4-0.4,0.8-0.6,1.1c0,0.1-0.1,0.2-0.1,0.3c0.2,0.9-0.5,1.5-0.4,2.4c-0.6,0.7-0.3,1.6-0.5,2.3c-0.2,1-0.7,1.7-1.4,2.3
			c-0.3,0.3-0.8,0.4-1.3,0.5c-1.3,0.2-2.6,0-3.8-0.7c0,0-0.1-0.1-0.1-0.1c-0.7-0.7-1.5-1.4-2.2-2.2c-0.2-0.2-0.3-0.6-0.5-0.8
			c-0.2-0.2-0.4-0.4-0.6-0.6c-0.2-0.2-0.3-0.4-0.4-0.6c-0.1-0.1-0.2-0.2-0.3-0.2c-0.4,0.6-0.7,1.1-1.1,1.7c-0.1,0.2-0.3,0.3-0.4,0.5
			c-0.1,0.1-0.1,0.3-0.2,0.4c0,0,0.1,0,0.1,0c-0.3,0.4-0.6,0.7-0.9,1.1c-0.3,0.4-0.7,0.8-1.1,1.1c-0.8,0.5-1.7,0.9-2.7,0.7
			c-0.2,0-0.4,0.1-0.6,0.1c-0.9,0.1-1.7,0-2.5-0.3c-1.1-0.4-2.2-0.9-3.2-1.4c-0.1-0.1-0.2-0.2-0.4-0.2c-0.3-0.2-0.5-0.6-1-0.5
			c-0.1,0-0.3-0.1-0.4-0.2c-0.2-0.2-0.5-0.4-0.7-0.6c-0.3-0.2-0.5-0.2-0.7,0.2c-0.5,1.1-0.6,2.4-0.8,3.6c0,0.2,0,0.5-0.3,0.5
			c-0.1,0-0.2,0.2-0.2,0.4c0,0.4,0,0.8,0,1.3c-0.3,0-0.3,0.3-0.3,0.6c-0.1,0.6-0.3,1.2-0.4,1.8c-0.5,1.4-1,2.9-1.5,4.3
			c-0.2,0.4-0.4,0.9-0.6,1.3c-0.1,0.2-0.2,0.5-0.2,0.7c-0.1,2.1-0.2,4.3-0.2,6.4c0,0.2,0,0.3-0.1,0.5c0-1.2,0-2.5,0-3.7
			c0,0-0.1,0-0.1,0c0,0.2-0.1,0.3-0.1,0.5c0,1.5,0,3,0,4.5c0,1.2-0.2,2.3-0.6,3.5c0,0.1-0.1,0.2-0.2,0.3c-0.1,0.3-0.3,0.5-0.4,0.8
			c-0.1,0.7,0,1.5-0.2,2.1c-0.3,0.7-0.1,1.5-0.5,2.1c-0.3,0.6-0.7,1.2-1.2,1.7c-0.5,0.6-1.1,1.1-1.6,1.7c-0.5,0.5-1,0.8-1.7,0.9
			c-1.9,0.3-3.8,0.4-5.8,0.3c-2-0.1-3.3-1.2-4.2-2.9c-0.5-1-0.5-2-0.4-3c0.1-1.1,0.4-2.3,0.5-3.4c0-0.3,0-0.6,0-0.9
			c0-0.3,0-0.6,0-0.8c0-1.4,0.1-2.8,0.1-4.2c0-0.3,0.1-0.5,0-0.8c0-0.1,0.2-0.3,0.2-0.5c0.4-0.8,0.2-1.7,0.2-2.6
			c0-0.8,0.1-1.5,0.1-2.3c0-0.1,0.1-0.1,0.1-0.2c0.1-0.1,0.3-0.2,0.1-0.4c0,0,0-0.2,0-0.3c0.1-0.9,0.1-1.7,0.2-2.6
			c0-0.1,0.1-0.3,0.2-0.4c0.1-0.2,0.3-0.4,0.1-0.6c0,0,0-0.1,0-0.2c0.1-1.2,0.2-2.5,0.4-3.7c0-0.4,0.1-0.8,0.1-1.2
			c0-1.1-0.6-1.7-1.6-2c-1.3-0.4-2.5-0.8-3.7-1.3c-0.2-0.1-0.3-0.3-0.5-0.5c-0.1-0.2-0.3-0.4-0.4-0.5c-0.3-0.3-0.5-0.6-0.8-0.9
			C52.5,87.8,52.5,87.7,52.5,87.6z M81.8,30.6c0-1.2,0-2.4,0-3.6c0-1.1-0.1-2.2-0.2-3.3c-0.3-2.1-1-4.2-1.8-6.2
			c-0.3-0.8-0.7-1.6-1-2.4c-0.4-0.9-0.9-1.8-1.6-2.5c-1.2-1.2-2.5-2.4-3.7-3.6c-0.3-0.3-0.6-0.8-1-1c-1-0.7-2-1.2-3-1.8
			c-1.8-1-3.7-1.7-5.7-2.2c-0.8-0.2-1.6-0.3-2.5-0.4c-2-0.1-4,0.3-5.9,0.6c-0.2,0-0.4,0-0.5,0.1c-0.3,0.3-0.6,0.6-0.9,0.9
			c-1.6,1.8-2.9,3.8-3.6,6.2c-0.5,1.6-1,3.2-1,5c0,3.3,0.6,6.6,1.7,9.7c0.9,2.6,1.7,5.2,2.8,7.7c0.7,1.5,1.4,3,2.5,4.3
			c1.8,2,3.6,4,5.4,6c0.5,0.6,0.9,0.5,1.3-0.1c0.3-0.6,0.6-1.2,1-1.7c1.4-2,2.9-4.1,4.4-6.1c0.4-0.6,0.9-1.1,1.8-0.7
			c-0.2,0.3-0.3,0.7-0.5,1c-0.1,0.2-0.4,0.4-0.5,0.7c-0.4,0.5-0.7,1.1-1.1,1.6c-1.2,1.4-2,3-2.9,4.6c-0.9,1.6-1.4,3.3-1.9,5
			c-0.2,0.5-0.3,1-0.6,1.5c-0.2,0.4-0.1,0.8-0.1,1.2c0.4-0.2,0.8-0.5,1.2-0.8c0.7-0.6,1.3-1.1,2-1.7c0.1-0.1,0.1-0.1,0.2-0.1
			c0.6-0.1,1.2-0.2,1.9-0.3c0.5,0,0.7,0.1,0.6,0.7c-0.1,0-0.3,0-0.4,0.1c-0.4,0.2-0.8,0.5-1.2,0.7c-1,0.5-1.8,1.2-2.5,2
			c-0.8,1.1-1.2,2.4-1.2,3.7c-0.1,2.3,0.1,4.6-0.4,6.9c-0.3,1.5-0.7,3-1,4.6c-0.2,1-0.2,2.1-0.5,3.1c-0.4,1.5-1,3-1.5,4.5
			c-0.4,1.1-0.9,2.1-1.5,3c-1.2,1.8-2.4,3.6-3.3,5.7c-0.4,0.8-0.7,1.6-0.5,2.6c0.2,1.3,0.9,2.3,2,2.7c2.1,0.8,4.3,1,6.5,0.4
			c1.4-0.4,2.8-1,3.6-2.3c0.2-0.3,0.4-0.6,0.5-0.9c1.1-1.9,1.7-4,2.1-6.2c0.1-0.3,0.2-0.4,0.5-0.4c0.8,0,1.4-0.4,2-1
			c0.8-1,1.7-1.9,2.4-2.8c1.3-1.6,2.3-3.4,3.1-5.2c0.5-1.2,0.8-2.4,0.7-3.6c0-0.2,0-0.4-0.1-0.4c-0.3-0.3-0.2-0.7-0.2-1.1
			c0.6-0.1,0.9,0.1,1.3,0.4c0.3,0.4,0.5,0.4,0.9,0.1c0.2-0.1,0.3-0.2,0.4-0.3c0.6-0.5,1.2-1.1,1.8-1.6c0.9-0.7,1.8-1.2,3-1
			c0.3,0.1,0.7,0,1.1,0c1.7,0,3.3,0,4.9,0.8c0.2,0.1,0.4,0.1,0.5,0.2c0.2,0.2,0.5,0.2,0.8,0.2c-0.1-0.5-0.2-1-0.4-1.4
			c-0.3-0.6-0.6-1.1-1-1.7c-0.2-0.3-0.1-0.5,0.1-0.6c0.1-0.1,0.3-0.2,0.4-0.1c0.3,0.2,0.6,0.5,0.8,0.8c0.8,1,1.3,2.2,1.6,3.4
			c0.8,3,1.5,6,2.3,9c0.2,0.9,0.2,1.7-0.1,2.5c-0.3,0.8-0.5,1.7-0.6,2.6c-0.1,1.2,0,2.4,0.1,3.5c0.1,0.7,0.2,1.4,0.4,2.1
			c0.4,1.5,1.2,2.7,2.1,3.9c0.9,1.1,2.1,1.5,3.5,1.6c0.6,0.1,1-0.2,1.2-0.8c0.2-0.6,0.5-1.2,0.6-1.8c0.8-3.4,1.7-6.7,3-10
			c1.2-3.1,1.5-6.4,1.1-9.7c-0.2-1.6-0.4-3.2-0.6-4.8c-0.2-2.7-0.5-5.4-0.9-8.1c-0.5-3-1.7-5.5-3.9-7.5c-1.7-1.5-3.4-3-5.2-4.4
			c-2.1-1.7-4.3-3.2-6.6-4.5c-3.6-2.1-7-4.5-10.3-7.1c-0.5-0.4-1-0.9-1.6-1.4C78.2,29,78,28.7,78,28.1c0.2,0.1,0.4,0.2,0.6,0.3
			c0.7,0.6,1.4,1.2,2.1,1.8C81,30.5,81.3,30.7,81.8,30.6z M60.1,114.1C60.1,114.1,60.2,114.1,60.1,114.1c0.1,2,0.1,4.1,0.1,6.1
			c0,0.5,0.2,0.9,0.7,1.1c0.9,0.3,1.7,0.6,2.6,0.8c0.7,0.1,1.5,0.2,2.2,0.1c0.9-0.1,1.6-0.7,2.3-1.1c0.6-0.4,1.1-0.9,1.4-1.5
			c0.7-1.1,1.1-2.2,1.4-3.5c0.5-3.1,0.9-6.3,1-9.5c0-2.1,0.2-4.1,0.9-6.1c1.2-3.5,2.3-7,3.2-10.5c0.4-1.6,0.8-3.3,0.7-5
			c-0.1-1.5-0.3-3-0.7-4.4c-0.3-0.9-0.6-1.9-0.9-2.8c-0.2-0.5-0.6-0.5-1-0.1c-0.3,0.4-0.7,0.9-1.1,1.3c-1.2,1.4-2.2,3-2.9,4.8
			c-0.5,1.3-1.2,2.6-2,3.8c-0.8,1.1-1.7,2-3,2.6c-0.5,0.2-1.1,0.5-1.6,0.7c-1,0.4-1.7,1.1-1.7,2.3c-0.1,1.1-0.3,2.2-0.4,3.4
			c-0.3,3-0.6,6.1-0.8,9.1C60.3,108.5,60.3,111.3,60.1,114.1z M89.2,71.3c-0.3,0-0.7,0-1,0c-0.9,0.1-1.8,0.2-2.6,0.6
			c-0.7,0.4-1.1,1-1,1.7c0,0.6,0.2,1.3,0.3,1.9c0.1,0.3,0,0.5-0.1,0.8c-0.2,0.4-0.5,0.4-0.8,0.3c-0.3-0.1-0.5-0.3-0.4-0.6
			c0.1-1-0.4-1.9-0.9-2.6c-0.2-0.4-0.6-0.6-1-0.8c-0.4-0.2-0.8-0.4-1.2-0.6c-0.2-0.1-0.4-0.2-0.6-0.2c-0.3,0-0.5-0.1-0.5-0.4
			c0-0.3,0.2-0.4,0.5-0.4c0.8,0,1.6,0,2.3,0c0.3,0,0.5-0.1,0.5-0.5c-0.1-0.3-0.1-0.7-0.3-1c-0.4-0.7-0.8-1.5-1.2-2.2
			c0-0.1-0.1-0.2-0.2-0.2c-0.5-0.1-0.9,0-1.2,0.5c-0.2,0.3-0.4,0.6-0.5,0.9c-0.9,1.8-1.7,3.5-2.5,5.3c-0.1,0.3-0.2,0.8-0.1,1.1
			c0.1,1,0.3,2,0.6,2.9c0.5,1.9,1,3.8,1.6,5.7c0.3,1,0.8,1.8,1.6,2.4c0.5,0.4,1,0.9,1.6,1.2c2.1,1.4,4.4,2.2,7,1.7
			c0.9-0.2,1.6-0.5,2-1.4c0.5-1,1-2,1.5-3c1-1.9,1.4-4,1.4-6.1c0-1,0.2-2,0.5-2.9c0.3-1.1,0.6-2.2,0-3.3c-0.1-0.2-0.1-0.4-0.2-0.6
			c-0.5-1.9-1.2-3.8-2.1-5.5c-0.5-0.9-1.1-1.5-2.1-1.9c-1-0.4-2-0.5-3.1-0.7c-1.3-0.2-2.5,0-3.7,0.5c-0.9,0.4-1.2,0.9-1,1.8
			c0.2,0.9,0.6,1.9,0.9,2.8c0.2,0.5,0.5,0.9,0.8,1.3c0.3,0.4,0.6,0.6,1.1,0.6c1.1-0.1,2.2-0.1,3.3-0.1
			C88.9,70.5,89.2,70.9,89.2,71.3z M61.4,55.9c-0.1,0-0.1,0-0.2,0c-0.2,0.5-0.5,1-0.7,1.5c-0.6,1.6-1.2,3.2-1.9,4.7
			c-0.9,1.9-1,3.9-0.8,6c0.1,0.7,0.3,1.5,0.5,2.2c0,0.2,0.2,0.4,0.4,0.2c0.2-0.2,0.3-0.4,0.4-0.6c0.5-2,1-4,1.4-6
			c0.6-2.4,1.1-4.9,0.9-7.4C61.5,56.2,61.4,56.1,61.4,55.9z M109,63.6c0,0-0.1,0-0.1,0c0.1,0.6,0.1,1.1,0.2,1.7c0,0,0,0,0.1,0
			C109.1,64.8,109.1,64.2,109,63.6z"/>
		<path class="st2" d="M81.8,30.6c-0.5,0.1-0.8-0.1-1.1-0.4c-0.7-0.6-1.4-1.2-2.1-1.8c-0.1-0.1-0.3-0.2-0.6-0.3
			c0,0.5,0.2,0.8,0.5,1.1c0.5,0.5,1,0.9,1.6,1.4c3.3,2.6,6.7,5,10.3,7.1c2.3,1.3,4.6,2.8,6.6,4.5c1.8,1.4,3.5,2.9,5.2,4.4
			c2.2,2,3.5,4.5,3.9,7.5c0.4,2.7,0.7,5.4,0.9,8.1c0.1,1.6,0.3,3.2,0.6,4.8c0.4,3.3,0.2,6.6-1.1,9.7c-1.3,3.2-2.3,6.6-3,10
			c-0.1,0.6-0.4,1.2-0.6,1.8c-0.2,0.6-0.7,0.8-1.2,0.8c-1.3-0.1-2.6-0.5-3.5-1.6c-0.9-1.2-1.8-2.5-2.1-3.9c-0.2-0.7-0.3-1.4-0.4-2.1
			c-0.1-1.2-0.2-2.4-0.1-3.5c0.1-0.9,0.3-1.7,0.6-2.6c0.3-0.8,0.3-1.7,0.1-2.5c-0.8-3-1.5-6-2.3-9c-0.3-1.2-0.9-2.4-1.6-3.4
			c-0.2-0.3-0.5-0.6-0.8-0.8c-0.1-0.1-0.3,0-0.4,0.1c-0.2,0.1-0.3,0.4-0.1,0.6c0.3,0.6,0.7,1.1,1,1.7c0.2,0.4,0.2,0.9,0.4,1.4
			c-0.4,0.1-0.6,0.1-0.8-0.2c-0.1-0.1-0.4-0.1-0.5-0.2c-1.5-0.8-3.2-0.8-4.9-0.8c-0.4,0-0.7,0-1.1,0c-1.2-0.2-2.2,0.3-3,1
			c-0.6,0.5-1.2,1.1-1.8,1.6c-0.1,0.1-0.3,0.2-0.4,0.3c-0.4,0.3-0.5,0.2-0.9-0.1c-0.3-0.4-0.7-0.6-1.3-0.4c0,0.4-0.1,0.7,0.2,1.1
			c0.1,0.1,0.1,0.3,0.1,0.4c0.1,1.3-0.2,2.5-0.7,3.6c-0.8,1.9-1.8,3.6-3.1,5.2c-0.8,1-1.6,1.9-2.4,2.8c-0.5,0.6-1.1,0.9-2,1
			c-0.3,0-0.5,0.1-0.5,0.4c-0.4,2.2-1,4.3-2.1,6.2c-0.2,0.3-0.4,0.6-0.5,0.9c-0.8,1.4-2.1,2-3.6,2.3c-2.2,0.6-4.4,0.4-6.5-0.4
			c-1.2-0.4-1.8-1.4-2-2.7c-0.1-1,0.2-1.8,0.5-2.6c0.9-2,2.1-3.8,3.3-5.7c0.6-0.9,1.1-2,1.5-3c0.5-1.5,1.1-3,1.5-4.5
			c0.3-1,0.3-2.1,0.5-3.1c0.3-1.5,0.7-3,1-4.6c0.5-2.3,0.4-4.6,0.4-6.9c0-1.3,0.4-2.6,1.2-3.7c0.6-0.9,1.5-1.5,2.5-2
			c0.4-0.2,0.8-0.5,1.2-0.7c0.1-0.1,0.2-0.1,0.4-0.1c0.1-0.6,0-0.8-0.6-0.7c-0.6,0.1-1.2,0.2-1.9,0.3c-0.1,0-0.1,0.1-0.2,0.1
			c-0.7,0.6-1.3,1.1-2,1.7c-0.4,0.3-0.7,0.5-1.2,0.8c0-0.4-0.1-0.8,0.1-1.2c0.3-0.5,0.4-1,0.6-1.5c0.6-1.7,1-3.4,1.9-5
			c0.9-1.6,1.7-3.2,2.9-4.6c0.4-0.5,0.7-1.1,1.1-1.6c0.2-0.2,0.4-0.4,0.5-0.7c0.2-0.3,0.4-0.7,0.5-1c-0.9-0.3-1.4,0.1-1.8,0.7
			c-1.5,2-2.9,4.1-4.4,6.1c-0.4,0.5-0.7,1.1-1,1.7c-0.4,0.7-0.8,0.7-1.3,0.1c-1.8-2-3.7-4-5.4-6c-1.1-1.3-1.8-2.7-2.5-4.3
			c-1.1-2.5-1.9-5.2-2.8-7.7c-1.1-3.1-1.7-6.4-1.7-9.7c0-1.7,0.5-3.3,1-5c0.7-2.3,2-4.3,3.6-6.2c0.3-0.3,0.6-0.6,0.9-0.9
			c0.1-0.1,0.4-0.1,0.5-0.1c2-0.2,3.9-0.7,5.9-0.6c0.8,0,1.7,0.2,2.5,0.4c2,0.5,3.9,1.2,5.7,2.2c1,0.6,2,1.2,3,1.8
			c0.4,0.3,0.6,0.7,1,1c1.2,1.2,2.5,2.4,3.7,3.6c0.7,0.7,1.2,1.5,1.6,2.5c0.3,0.8,0.7,1.6,1,2.4c0.8,2,1.5,4.1,1.8,6.2
			c0.2,1.1,0.2,2.2,0.2,3.3C81.8,28.2,81.8,29.4,81.8,30.6z"/>
		<path class="st2" d="M60.1,114.1c0.1-2.8,0.2-5.7,0.4-8.5c0.2-3,0.5-6.1,0.8-9.1c0.1-1.1,0.3-2.2,0.4-3.4c0.1-1.2,0.8-1.8,1.7-2.3
			c0.5-0.2,1.1-0.5,1.6-0.7c1.3-0.5,2.2-1.4,3-2.6c0.8-1.2,1.5-2.4,2-3.8c0.7-1.8,1.7-3.4,2.9-4.8c0.4-0.4,0.7-0.9,1.1-1.3
			c0.4-0.5,0.8-0.5,1,0.1c0.4,0.9,0.6,1.9,0.9,2.8c0.4,1.4,0.6,2.9,0.7,4.4c0.1,1.7-0.3,3.3-0.7,5c-0.9,3.6-2,7.1-3.2,10.5
			c-0.7,2-0.9,4-0.9,6.1c-0.1,3.2-0.4,6.4-1,9.5c-0.2,1.2-0.7,2.4-1.4,3.5c-0.4,0.6-0.8,1.1-1.4,1.5c-0.7,0.4-1.4,1.1-2.3,1.1
			c-0.7,0.1-1.5,0-2.2-0.1c-0.9-0.2-1.8-0.5-2.6-0.8c-0.5-0.2-0.7-0.5-0.7-1.1C60.2,118.2,60.2,116.2,60.1,114.1
			C60.2,114.1,60.1,114.1,60.1,114.1z"/>
		<path class="st2" d="M89.2,71.3c0-0.4-0.3-0.8-0.7-0.8c-1.1,0-2.2,0-3.3,0.1c-0.5,0-0.9-0.2-1.1-0.6c-0.3-0.4-0.6-0.9-0.8-1.3
			c-0.4-0.9-0.7-1.8-0.9-2.8c-0.2-0.9,0.1-1.5,1-1.8c1.2-0.5,2.4-0.7,3.7-0.5c1.1,0.1,2.1,0.3,3.1,0.7c1,0.4,1.7,1,2.1,1.9
			c0.9,1.8,1.5,3.6,2.1,5.5c0.1,0.2,0.1,0.4,0.2,0.6c0.5,1.1,0.3,2.2,0,3.3c-0.3,1-0.5,1.9-0.5,2.9c0,2.2-0.5,4.2-1.4,6.1
			c-0.5,1-1,2-1.5,3c-0.4,0.8-1.1,1.2-2,1.4c-2.6,0.6-4.9-0.3-7-1.7c-0.6-0.4-1.1-0.8-1.6-1.2c-0.8-0.6-1.3-1.5-1.6-2.4
			c-0.5-1.9-1.1-3.8-1.6-5.7c-0.2-1-0.4-1.9-0.6-2.9c-0.1-0.4,0-0.8,0.1-1.1c0.8-1.8,1.7-3.5,2.5-5.3c0.1-0.3,0.3-0.6,0.5-0.9
			c0.3-0.5,0.7-0.6,1.2-0.5c0.1,0,0.1,0.1,0.2,0.2c0.4,0.7,0.8,1.4,1.2,2.2c0.1,0.3,0.2,0.6,0.3,1c0.1,0.3-0.1,0.5-0.5,0.5
			c-0.8,0-1.6,0-2.3,0c-0.3,0-0.5,0-0.5,0.4c0,0.3,0.2,0.4,0.5,0.4c0.2,0,0.4,0.1,0.6,0.2c0.4,0.2,0.9,0.4,1.2,0.6
			c0.4,0.2,0.8,0.5,1,0.8c0.5,0.8,1,1.6,0.9,2.6c0,0.3,0.2,0.5,0.4,0.6c0.3,0.1,0.6,0.1,0.8-0.3c0.1-0.3,0.1-0.5,0.1-0.8
			c-0.2-0.6-0.3-1.3-0.3-1.9c0-0.8,0.3-1.4,1-1.7c0.8-0.4,1.7-0.6,2.6-0.6C88.5,71.3,88.9,71.3,89.2,71.3z"/>
		<path class="st2" d="M61.4,55.9c0,0.2,0.1,0.3,0.1,0.5c0.1,2.5-0.3,5-0.9,7.4c-0.5,2-0.9,4-1.4,6c-0.1,0.2-0.2,0.5-0.4,0.6
			c-0.2,0.2-0.4,0-0.4-0.2c-0.2-0.7-0.4-1.4-0.5-2.2c-0.2-2-0.1-4.1,0.8-6c0.7-1.5,1.3-3.2,1.9-4.7c0.2-0.5,0.5-1,0.7-1.5
			C61.2,55.9,61.3,55.9,61.4,55.9z"/>
	</g>
</g>
</svg>
