<?xml version="1.0" encoding="utf-8"?>
<!-- Generator: Adobe Illustrator 19.2.1, SVG Export Plug-In . SVG Version: 6.00 Build 0)  -->
<svg version="1.1" id="Слой_1" xmlns="http://www.w3.org/2000/svg" xmlns:xlink="http://www.w3.org/1999/xlink" x="0px" y="0px"
	 viewBox="0 0 23.3 24.1" style="enable-background:new 0 0 23.3 24.1;" xml:space="preserve">
<style type="text/css">
	.st0{fill:#B1B4B7;}
</style>
<path class="st0" d="M11.6,1.6c-2.3,0-4.3,2.1-4.3,4.8c0,2.6,1.9,4.8,4.3,4.8c2.3,0,4.3-2.1,4.3-4.8C15.9,3.7,14,1.6,11.6,1.6z
	 M11.6,3.6c1.3,0,2.3,1.3,2.3,2.8c0,1.5-1,2.8-2.3,2.8c-1.3,0-2.3-1.3-2.3-2.8C9.3,4.8,10.3,3.6,11.6,3.6z M11.5,12.1
	c-1.7,0-3.3,0.3-4.9,0.9C5,13.6,3.9,15.3,4,16.9l0.3,4.1c0,0.5,0.5,0.9,1,0.9h12.6v0c0.5,0,0.9-0.4,1-0.9l0.3-4.1
	c0.1-1.6-1.1-3.3-2.6-3.9C14.9,12.4,13.2,12.1,11.5,12.1L11.5,12.1z M11.5,14.1c1.4,0,2.9,0.2,4.3,0.7c0.8,0.3,1.4,1.3,1.3,1.9
	l-0.2,3.2H6.1v0l-0.2-3.2c0-0.6,0.5-1.6,1.3-1.9C8.6,14.3,10.1,14.1,11.5,14.1L11.5,14.1z"/>
</svg>
