<?xml version="1.0" encoding="utf-8"?>
<!-- Generator: Adobe Illustrator 19.1.0, SVG Export Plug-In . SVG Version: 6.00 Build 0)  -->
<svg version="1.1" id="Слой_1" xmlns="http://www.w3.org/2000/svg" xmlns:xlink="http://www.w3.org/1999/xlink" x="0px" y="0px"
	 viewBox="0 0 203 10" style="enable-background:new 0 0 203 10;" xml:space="preserve">
<style type="text/css">
	.st0{fill:#FFFFFF;}
</style>
<g>
	<polygon class="st0" points="0.3,4.8 0.3,4.8 0.3,4.8 	"/>
	<path class="st0" d="M194.9,0h-10.4h-10.4h-10.4h-10.4H143h-10.4h-10.4H112h-10.4H91.2H80.9H70.5H60.1H49.8H39.4H29H18.7H8.3H0v4.8
		c0-1.4,1.3-2.6,2.7-2.6c1.4,0,2.7,1.2,2.7,2.6S4.1,7.4,2.7,7.4C1.3,7.4,0,6.3,0,4.8V10h8.3h10.4H29h10.4h10.4h10.4h10.4h10.4h10.4
		h10.4H112h10.4h10.4H143h10.4h10.4h10.4h10.4h10.4h8.1V0H194.9z M13.1,7.4c-1.4,0-2.6-1.2-2.6-2.6s1.2-2.6,2.6-2.6
		c1.4,0,2.6,1.2,2.6,2.6S14.5,7.4,13.1,7.4z M23.3,7.4c-1.4,0-2.6-1.2-2.6-2.6s1.2-2.6,2.6-2.6c1.4,0,2.6,1.2,2.6,2.6
		S24.7,7.4,23.3,7.4z M33.5,7.4c-1.4,0-2.6-1.2-2.6-2.6s1.2-2.6,2.6-2.6c1.4,0,2.6,1.2,2.6,2.6S34.9,7.4,33.5,7.4z M44.7,7.4
		c-1.4,0-2.6-1.2-2.6-2.6s1.2-2.6,2.6-2.6c1.4,0,2.6,1.2,2.6,2.6S46.1,7.4,44.7,7.4z M54.9,7.4c-1.4,0-2.6-1.2-2.6-2.6
		s1.2-2.6,2.6-2.6c1.4,0,2.6,1.2,2.6,2.6S56.3,7.4,54.9,7.4z M65.1,7.4c-1.4,0-2.6-1.2-2.6-2.6s1.2-2.6,2.6-2.6
		c1.4,0,2.6,1.2,2.6,2.6S66.5,7.4,65.1,7.4z M75.3,7.4c-1.4,0-2.6-1.2-2.6-2.6s1.2-2.6,2.6-2.6c1.4,0,2.6,1.2,2.6,2.6
		S76.7,7.4,75.3,7.4z M85.5,7.4c-1.4,0-2.6-1.2-2.6-2.6s1.2-2.6,2.6-2.6c1.4,0,2.6,1.2,2.6,2.6S86.9,7.4,85.5,7.4z M95.7,7.4
		c-1.4,0-2.6-1.2-2.6-2.6s1.2-2.6,2.6-2.6c1.4,0,2.6,1.2,2.6,2.6S97.1,7.4,95.7,7.4z M106.9,7.4c-1.4,0-2.6-1.2-2.6-2.6
		s1.2-2.6,2.6-2.6c1.4,0,2.6,1.2,2.6,2.6S108.4,7.4,106.9,7.4z M117.1,7.4c-1.4,0-2.6-1.2-2.6-2.6s1.2-2.6,2.6-2.6
		c1.4,0,2.6,1.2,2.6,2.6S118.6,7.4,117.1,7.4z M127.3,7.4c-1.4,0-2.6-1.2-2.6-2.6s1.2-2.6,2.6-2.6c1.4,0,2.6,1.2,2.6,2.6
		S128.8,7.4,127.3,7.4z M137.5,7.4c-1.4,0-2.6-1.2-2.6-2.6s1.2-2.6,2.6-2.6c1.4,0,2.6,1.2,2.6,2.6S139,7.4,137.5,7.4z M147.7,7.4
		c-1.4,0-2.6-1.2-2.6-2.6s1.2-2.6,2.6-2.6c1.4,0,2.6,1.2,2.6,2.6S149.2,7.4,147.7,7.4z M157.9,7.4c-1.4,0-2.6-1.2-2.6-2.6
		s1.2-2.6,2.6-2.6c1.4,0,2.6,1.2,2.6,2.6S159.4,7.4,157.9,7.4z M169.2,7.4c-1.4,0-2.6-1.2-2.6-2.6s1.2-2.6,2.6-2.6
		c1.4,0,2.6,1.2,2.6,2.6S170.6,7.4,169.2,7.4z M179.4,7.4c-1.4,0-2.6-1.2-2.6-2.6s1.2-2.6,2.6-2.6c1.4,0,2.6,1.2,2.6,2.6
		S180.8,7.4,179.4,7.4z M189.6,7.4c-1.4,0-2.6-1.2-2.6-2.6s1.2-2.6,2.6-2.6c1.4,0,2.6,1.2,2.6,2.6S191,7.4,189.6,7.4z M199.8,7.4
		c-1.4,0-2.6-1.2-2.6-2.6s1.2-2.6,2.6-2.6c1.4,0,2.6,1.2,2.6,2.6S201.3,7.4,199.8,7.4z"/>
</g>
</svg>
